<svg xmlns="http://www.w3.org/2000/svg" xmlns:xlink="http://www.w3.org/1999/xlink" width="384" zoomAndPan="magnify" viewBox="0 0 288 287.999989" height="384" preserveAspectRatio="xMidYMid meet" version="1.0"><defs><clipPath id="76db5d4bf2"><path d="M 41 93 L 206 93 L 206 282.855469 L 41 282.855469 Z M 41 93 " clip-rule="nonzero"/></clipPath><clipPath id="dbb60c79f5"><path d="M 67 5.355469 L 177 5.355469 L 177 57 L 67 57 Z M 67 5.355469 " clip-rule="nonzero"/></clipPath><clipPath id="a571af5e8a"><path d="M 140 123 L 250 123 L 250 282.855469 L 140 282.855469 Z M 140 123 " clip-rule="nonzero"/></clipPath><clipPath id="d3cc4f2092"><path d="M 216 106 L 283.097656 106 L 283.097656 235 L 216 235 Z M 216 106 " clip-rule="nonzero"/></clipPath><clipPath id="ac3dff2128"><path d="M 41 93 L 206 93 L 206 282.855469 L 41 282.855469 Z M 41 93 " clip-rule="nonzero"/></clipPath></defs><g clip-path="url(#76db5d4bf2)"><path fill="#ffffff" d="M 187 93.457031 L 205.28125 115.96875 C 160.726562 148.601562 179.679688 262.117188 130.285156 282.65625 C 95.335938 279.21875 64.160156 262.816406 41.664062 238.332031 C 86.707031 184.222656 133.292969 132.710938 186.996094 93.457031 Z M 187 93.457031 " fill-opacity="1" fill-rule="evenodd"/></g><path fill="#ffffff" d="M 160.734375 68.140625 L 180.425781 87.832031 C 115.183594 143.140625 73.902344 189.476562 38.402344 233.632812 L 37.816406 233.976562 C 17.359375 209.769531 5.03125 178.480469 5.03125 144.332031 C 5.03125 141.570312 5.113281 138.824219 5.273438 136.105469 C 29.976562 86.257812 122.785156 102.59375 160.734375 68.144531 Z M 160.734375 68.140625 " fill-opacity="1" fill-rule="evenodd"/><path fill="#ffffff" d="M 78.539062 29.925781 C 109.550781 30.234375 148.949219 50.183594 152.777344 61.589844 C 151.515625 90.222656 19.898438 81.832031 6.046875 129.089844 L 5.851562 129.113281 C 10.203125 89.234375 31.433594 54.410156 62.25 31.945312 C 67.28125 30.484375 72.804688 29.867188 78.535156 29.925781 Z M 78.539062 29.925781 " fill-opacity="1" fill-rule="evenodd"/><g clip-path="url(#dbb60c79f5)"><path fill="#ffffff" d="M 144.011719 5.339844 C 150.984375 5.339844 157.855469 5.855469 164.554688 6.847656 C 185.230469 29.230469 174.199219 49.335938 163.09375 55.480469 C 153.617188 62.230469 129.179688 19.980469 67.898438 28.050781 C 89.769531 13.699219 115.914062 5.339844 144.011719 5.339844 Z M 144.011719 5.339844 " fill-opacity="1" fill-rule="evenodd"/></g><g clip-path="url(#a571af5e8a)"><path fill="#ffffff" d="M 207.367188 123.339844 C 208.632812 123.367188 209.960938 123.621094 211.359375 124.097656 C 229.472656 138.308594 262.613281 206.714844 243.246094 240.804688 C 243.242188 240.808594 243.25 240.828125 243.246094 240.832031 C 218.015625 266.558594 182.863281 282.527344 144.007812 282.527344 C 142.9375 282.527344 141.878906 282.527344 140.816406 282.5 C 182.671875 252.253906 173.5625 131.644531 207.367188 123.339844 Z M 207.367188 123.339844 " fill-opacity="1" fill-rule="evenodd"/></g><g clip-path="url(#d3cc4f2092)"><path fill="#ffffff" d="M 240.8125 106.570312 C 256.03125 107.054688 273.789062 115.03125 282.144531 132.375 L 282.582031 133.421875 C 282.863281 137.019531 283.019531 140.652344 283.019531 144.324219 C 283.019531 178.710938 270.503906 210.183594 249.796875 234.460938 C 268.960938 174.289062 210.640625 121.386719 216.984375 115.503906 C 221.175781 109.429688 230.402344 106.242188 240.8125 106.570312 Z M 240.8125 106.570312 " fill-opacity="1" fill-rule="evenodd"/></g><path fill="#ffffff" d="M 245.222656 49.105469 C 264.859375 69.964844 278.152344 96.878906 281.929688 126.75 C 267.15625 102.042969 245.117188 93.078125 209.488281 111.757812 L 191.210938 88.78125 C 203.144531 78.011719 228.316406 59.414062 245.222656 49.105469 Z M 245.222656 49.105469 " fill-opacity="1" fill-rule="evenodd"/><path fill="#ffffff" d="M 170.566406 7.871094 C 197.792969 13.144531 222.191406 26.375 241.25 45.039062 L 240.910156 45.648438 C 220.863281 54.777344 203.714844 69.738281 186.046875 83.621094 L 164.964844 63.929688 C 178.699219 50.074219 189.296875 34.953125 170.566406 7.871094 Z M 170.566406 7.871094 " fill-opacity="1" fill-rule="evenodd"/><g clip-path="url(#ac3dff2128)"><path fill="#ffffff" d="M 187 93.457031 L 205.28125 115.96875 C 160.726562 148.601562 179.679688 262.117188 130.285156 282.65625 C 95.335938 279.21875 64.160156 262.816406 41.664062 238.332031 C 86.707031 184.222656 133.292969 132.710938 186.996094 93.457031 Z M 187 93.457031 " fill-opacity="1" fill-rule="evenodd"/></g></svg>