<svg xmlns="http://www.w3.org/2000/svg" xmlns:xlink="http://www.w3.org/1999/xlink" width="384" zoomAndPan="magnify" viewBox="0 0 288 287.999989" height="384" preserveAspectRatio="xMidYMid meet" version="1.0"><defs><clipPath id="4fdcacbd0d"><path d="M 6 15.945312 L 287.785156 15.945312 L 287.785156 271.695312 L 6 271.695312 Z M 6 15.945312 " clip-rule="nonzero"/></clipPath></defs><g clip-path="url(#4fdcacbd0d)"><path fill="#ffffff" d="M 281.261719 118.84375 C 281.210938 118.722656 281.125 118.621094 281 118.554688 C 274.722656 115.007812 268.0625 113.210938 261.207031 113.210938 C 252.195312 113.210938 243.128906 116.382812 234.265625 122.640625 C 233.546875 123.144531 232.707031 123.414062 231.832031 123.414062 C 230.453125 123.414062 229.160156 122.742188 228.371094 121.621094 C 227.027344 119.71875 227.480469 117.074219 229.390625 115.730469 C 240.011719 108.230469 249.8125 104.589844 259.351562 104.589844 C 264.015625 104.589844 268.753906 105.460938 273.851562 107.253906 C 274.09375 107.339844 274.363281 107.261719 274.519531 107.0625 C 274.6875 106.855469 278.5 101.890625 276.445312 89.800781 C 275.535156 85.457031 273.867188 81.910156 271.507812 79.289062 C 266.75 73.253906 261.921875 71.984375 258.710938 71.984375 C 256.714844 71.984375 255.453125 72.484375 255.398438 72.503906 C 255.285156 72.550781 255.183594 72.632812 255.117188 72.742188 C 250.5 80 245.144531 84.875 235.355469 90.734375 C 234.695312 91.125 233.949219 91.332031 233.1875 91.332031 C 231.707031 91.332031 230.320312 90.542969 229.558594 89.273438 C 228.359375 87.273438 229.011719 84.671875 231.011719 83.472656 C 242.828125 76.402344 247.523438 71.757812 250.367188 64.292969 C 251.804688 59.023438 250.035156 51.917969 246.261719 47.792969 L 245.507812 46.863281 C 241.21875 41.585938 233.25 31.765625 213.105469 26.605469 C 210.308594 25.714844 207.457031 25.265625 204.617188 25.265625 C 196.410156 25.265625 191.054688 28.960938 190.832031 29.117188 C 190.609375 29.269531 190.519531 29.554688 190.605469 29.804688 C 191.402344 32.15625 193.839844 39.300781 191.359375 47.300781 C 190.808594 49.082031 189.183594 50.277344 187.320312 50.277344 C 186.898438 50.277344 186.476562 50.214844 186.066406 50.085938 C 183.84375 49.394531 182.59375 47.023438 183.285156 44.796875 C 184.925781 39.496094 184.574219 34.816406 182.210938 30.496094 C 179.121094 24.839844 174.835938 21.03125 169.140625 18.859375 C 163.699219 16.542969 155.082031 16.03125 151.605469 15.917969 C 129.207031 16.039062 113.238281 17.480469 93.03125 24.710938 C 90.441406 25.554688 88.425781 27.246094 87.347656 29.476562 C 86.074219 32.117188 86.101562 35.40625 87.4375 38.992188 C 87.453125 39.035156 87.5 39.179688 87.582031 39.414062 C 89.144531 43.988281 90.675781 48.09375 92.128906 51.621094 C 92.558594 52.664062 92.558594 53.8125 92.125 54.855469 C 91.691406 55.894531 90.878906 56.710938 89.835938 57.140625 C 89.316406 57.351562 88.777344 57.460938 88.222656 57.460938 C 86.519531 57.460938 84.984375 56.429688 84.3125 54.839844 C 83.097656 51.949219 79.324219 42.484375 79.289062 42.398438 C 79.21875 42.210938 77.46875 37.824219 71.832031 37.824219 C 67.597656 37.824219 62.347656 40.34375 56.234375 45.308594 C 48.101562 51.609375 43.953125 57.3125 43.894531 62.265625 C 43.851562 65.757812 45.9375 67.484375 46.082031 67.597656 C 47.757812 68.667969 56.871094 75.617188 60.679688 79.859375 C 62.273438 81.628906 62.222656 84.261719 60.5625 85.847656 C 59.769531 86.605469 58.734375 87.019531 57.640625 87.019531 C 56.476562 87.019531 55.390625 86.554688 54.585938 85.714844 C 45.132812 75.839844 37.382812 71.035156 30.886719 71.035156 C 29.976562 71.035156 29.078125 71.132812 28.226562 71.328125 C 25.703125 71.90625 21.617188 74.8125 19.160156 78.636719 C 10.488281 89.902344 7.65625 98.742188 6.855469 113.871094 C 6.375 122.925781 8.816406 131.765625 11.5625 135.605469 C 15.421875 141 19.320312 144.054688 20.800781 145.125 C 20.800781 145.125 21.988281 145.878906 22.441406 145.527344 C 26.304688 142.492188 30.726562 140.902344 36.152344 140.902344 C 39.398438 140.902344 43.070312 141.445312 47.066406 142.527344 C 48.121094 142.816406 49.007812 143.507812 49.550781 144.480469 C 50.109375 145.472656 50.246094 146.671875 49.921875 147.769531 C 49.398438 149.558594 47.734375 150.808594 45.863281 150.808594 C 45.464844 150.808594 45.066406 150.75 44.679688 150.640625 C 41.886719 149.824219 39.28125 149.480469 36.941406 149.410156 C 34.632812 149.347656 30.421875 149.566406 28.515625 151.71875 C 28.429688 151.820312 28.351562 151.917969 28.320312 152.042969 C 28.292969 152.160156 27.84375 162.453125 42.492188 167.703125 C 54.792969 172.109375 61.191406 172.253906 87.925781 172.253906 C 91.867188 172.253906 96.203125 172.214844 101.566406 172.125 C 102.917969 172.085938 104.835938 171.421875 106.054688 170.003906 C 106.984375 168.929688 107.382812 167.582031 107.207031 166.171875 C 107.191406 163.898438 107.542969 161.828125 108.324219 159.648438 C 111.527344 150.671875 117.976562 144.808594 129.242188 140.632812 C 129.71875 140.457031 130.210938 140.367188 130.710938 140.367188 C 132.472656 140.367188 134.0625 141.476562 134.675781 143.128906 C 135.066406 144.183594 135.027344 145.332031 134.550781 146.359375 C 134.082031 147.390625 133.242188 148.167969 132.183594 148.5625 C 123.570312 151.757812 118.265625 156.320312 116.410156 162.128906 C 113.285156 171.921875 120.515625 182.679688 120.605469 182.765625 C 142.128906 203.863281 183.953125 204.464844 186.054688 198.609375 C 187.824219 194.261719 189.042969 187.363281 184.773438 179.171875 C 178.082031 166.339844 155.390625 165.542969 155.164062 165.53125 C 152.832031 165.46875 150.988281 163.515625 151.054688 161.195312 C 151.117188 158.925781 153.015625 157.082031 155.382812 157.082031 C 156.519531 157.113281 183.265625 157.992188 192.265625 175.261719 C 197.15625 184.636719 196.46875 192.980469 195.023438 198.34375 C 194.679688 199.785156 194.941406 201.238281 195.722656 202.234375 C 196.222656 202.863281 197.15625 203.613281 198.8125 203.613281 C 198.8125 203.613281 213.625 203.707031 225.730469 201.191406 C 227.367188 200.851562 228.929688 202.0625 229.183594 203.703125 C 229.441406 205.351562 228.308594 206.898438 226.664062 207.15625 C 208.898438 209.933594 193.324219 211.324219 179.804688 211.324219 C 163.46875 211.324219 150.128906 209.292969 139.535156 205.226562 C 139.714844 212.691406 142.253906 219.203125 146.867188 224.535156 C 146.894531 224.578125 146.921875 224.609375 146.949219 224.648438 C 148.484375 226.269531 150.789062 228.558594 152.894531 230.476562 C 154.503906 231.945312 162.125 236.800781 164.105469 238 C 167.933594 240.230469 185.328125 250.933594 187 252.007812 C 194.65625 256.941406 196.921875 262.296875 197.160156 262.617188 C 197.980469 263.699219 198.398438 266.90625 198.398438 266.90625 C 199.09375 269.785156 201.6875 271.925781 204.78125 271.917969 C 208.394531 271.90625 211.320312 268.96875 211.308594 265.351562 C 211.308594 265.351562 211.410156 258 208.546875 252.964844 C 208.085938 252.03125 202.054688 242.144531 195.09375 236.777344 C 192.980469 235.144531 187.992188 231.5 187.992188 231.5 L 187.964844 231.488281 C 187.398438 231.101562 187.21875 230.339844 187.582031 229.75 C 187.953125 229.148438 188.742188 228.957031 189.347656 229.328125 C 189.347656 229.328125 204.035156 239.644531 213.246094 237.078125 C 226.78125 233.304688 244.496094 224.40625 244.496094 204.375 C 244.496094 201.398438 244.199219 198.601562 243.636719 195.964844 C 245.511719 194.964844 247.378906 193.832031 249.242188 192.535156 C 251.429688 190.785156 252.078125 188.613281 252.238281 187.101562 C 252.464844 184.941406 251.839844 182.648438 250.605469 181.136719 L 241.6875 169.652344 L 241.582031 169.539062 C 239.726562 167.179688 237.296875 166.683594 235.582031 166.683594 C 234.117188 166.683594 232.972656 167.035156 232.359375 167.269531 C 229.226562 168.851562 225.921875 170.148438 222.558594 171.121094 C 220.34375 171.757812 217.953125 170.410156 217.324219 168.230469 C 217.011719 167.148438 217.136719 166.003906 217.683594 165.015625 C 218.230469 164.027344 219.125 163.3125 220.210938 163.003906 C 227.886719 160.785156 241.730469 154.660156 248.296875 138.578125 C 248.941406 136.980469 250.480469 135.945312 252.214844 135.945312 C 252.761719 135.945312 253.296875 136.050781 253.804688 136.261719 C 255.964844 137.140625 257.007812 139.613281 256.125 141.773438 C 254.019531 146.933594 251.136719 151.605469 247.5 155.738281 C 245.84375 158.410156 246.058594 161.183594 248.183594 164.230469 L 254.007812 171.800781 C 254.085938 171.910156 254.191406 171.984375 254.316406 172.015625 C 254.414062 172.046875 256.691406 172.6875 259.941406 172.6875 C 264.316406 172.6875 270.511719 171.5 275.148438 165.820312 C 286.480469 152.269531 287.03125 140.546875 287.429688 131.984375 C 287.476562 131.132812 287.507812 130.304688 287.558594 129.421875 C 287.058594 123.152344 283.054688 119.96875 281.261719 118.84375 Z M 107.691406 113.230469 C 102.242188 118.617188 96.226562 122.582031 89.824219 125.019531 C 89.75 125.046875 89.6875 125.085938 89.636719 125.140625 C 86.6875 126.742188 85.660156 128.949219 86.210938 132.515625 L 88.636719 146.332031 C 88.855469 147.4375 88.628906 148.566406 87.996094 149.503906 C 87.367188 150.4375 86.414062 151.078125 85.304688 151.292969 C 83.019531 151.742188 80.78125 150.207031 80.335938 147.960938 L 77.691406 133.050781 C 76.882812 129.914062 73.875 128.257812 71.925781 128.039062 C 71.847656 127.992188 71.753906 127.96875 71.65625 127.964844 C 50.640625 127.207031 33.820312 113.628906 33.652344 113.492188 C 32.78125 112.777344 32.238281 111.765625 32.125 110.640625 C 32.011719 109.519531 32.347656 108.417969 33.058594 107.546875 C 33.863281 106.5625 35.058594 105.996094 36.332031 105.996094 C 37.300781 105.996094 38.25 106.335938 39.003906 106.949219 C 39.640625 107.46875 54.804688 119.628906 73 119.628906 C 83.738281 119.628906 93.414062 115.449219 101.753906 107.21875 C 103.359375 105.628906 106.144531 105.644531 107.730469 107.253906 C 108.523438 108.058594 108.957031 109.125 108.949219 110.253906 C 108.945312 111.378906 108.496094 112.4375 107.691406 113.230469 Z M 113.265625 83.871094 C 100.050781 83.871094 90.601562 92.046875 90.203125 92.390625 C 89.429688 93.070312 88.441406 93.445312 87.417969 93.445312 C 86.199219 93.445312 85.039062 92.921875 84.238281 92.007812 C 83.496094 91.160156 83.121094 90.074219 83.199219 88.945312 C 83.269531 87.820312 83.777344 86.789062 84.625 86.042969 C 90.414062 80.957031 101.007812 75.523438 113.371094 75.523438 C 122.28125 75.523438 130.800781 78.347656 138.699219 83.925781 C 139.617188 84.574219 140.230469 85.546875 140.425781 86.660156 C 140.617188 87.769531 140.363281 88.890625 139.710938 89.8125 C 138.921875 90.9375 137.628906 91.605469 136.253906 91.605469 C 135.378906 91.605469 134.539062 91.335938 133.824219 90.828125 C 127.285156 86.210938 120.367188 83.871094 113.265625 83.871094 Z M 211.09375 143.796875 C 210.363281 144.664062 209.34375 145.191406 208.222656 145.289062 C 190.015625 146.886719 176.453125 142.875 168.203125 133.429688 C 166.914062 131.957031 165.734375 130.3125 164.699219 128.53125 C 164.675781 128.488281 164.640625 128.445312 164.609375 128.410156 C 163.515625 127.308594 162.015625 126.71875 160.148438 126.652344 C 159.488281 126.628906 158.789062 126.667969 158.015625 126.777344 C 157.929688 126.761719 152.664062 127.917969 147.496094 127.746094 C 135.847656 127.363281 128.355469 121.902344 128.042969 121.671875 C 126.164062 120.289062 125.765625 117.636719 127.152344 115.757812 C 127.976562 114.632812 129.308594 113.992188 130.703125 114.042969 C 131.550781 114.074219 132.359375 114.351562 133.046875 114.855469 C 133.28125 115.023438 138.910156 118.757812 147.722656 119.28125 C 151.984375 119.535156 156.164062 118.1875 156.675781 117.972656 C 159.933594 116.605469 159.8125 112.992188 159.652344 111.59375 C 158.957031 103.421875 160.40625 96.902344 160.464844 96.628906 C 160.96875 94.390625 163.261719 92.925781 165.519531 93.4375 C 167.785156 93.949219 169.21875 96.210938 168.710938 98.484375 C 168.671875 98.664062 164.820312 116.761719 174.601562 127.90625 C 180.988281 135.183594 192.117188 138.21875 207.488281 136.867188 C 209.859375 136.671875 211.867188 138.414062 212.066406 140.710938 C 212.160156 141.832031 211.820312 142.929688 211.09375 143.796875 Z M 207.773438 78.363281 C 200.203125 85.621094 196.472656 97.167969 198.28125 107.785156 C 198.636719 109.851562 197.238281 111.824219 195.171875 112.175781 C 194.957031 112.210938 194.742188 112.230469 194.523438 112.230469 C 192.667969 112.230469 191.003906 110.914062 190.78125 109.0625 C 189.390625 97.722656 193.0625 87.25 193.105469 87.140625 C 193.351562 86.546875 193.382812 86.027344 193.195312 85.605469 C 192.976562 85.082031 192.46875 84.792969 192.078125 84.640625 C 180.730469 83.382812 160.289062 79.0625 150.800781 64.25 C 149.335938 62.097656 145.511719 63.199219 139.316406 63.191406 C 111.484375 63.144531 107.539062 45.269531 107.386719 44.507812 C 107.1875 43.515625 107.382812 42.496094 107.945312 41.652344 C 108.507812 40.804688 109.359375 40.222656 110.359375 40.023438 C 110.609375 39.972656 110.863281 39.945312 111.117188 39.945312 C 112.898438 39.945312 114.460938 41.210938 114.835938 42.957031 C 114.957031 43.46875 118.007812 55.574219 139.378906 55.574219 C 140.4375 55.574219 141.539062 55.542969 142.652344 55.484375 C 145.109375 55.183594 146.484375 53.890625 146.84375 51.535156 C 147.195312 43.300781 153.398438 37.179688 157.007812 34.859375 C 157.621094 34.464844 158.332031 34.257812 159.058594 34.257812 C 160.363281 34.257812 161.5625 34.910156 162.265625 36.007812 C 162.816406 36.859375 163 37.878906 162.78125 38.871094 C 162.5625 39.863281 161.972656 40.710938 161.121094 41.261719 C 160.730469 41.519531 151.515625 47.679688 155.417969 56.773438 C 162.445312 73.152344 186.355469 76.628906 196.304688 77.359375 C 197.558594 77.261719 198.992188 76.511719 200.21875 75.300781 C 201.058594 74.335938 201.785156 73.554688 202.511719 72.863281 C 212.183594 63.59375 212.761719 54.519531 212.78125 54.136719 C 212.886719 52.042969 214.675781 50.417969 216.753906 50.523438 C 218.832031 50.617188 220.460938 52.382812 220.382812 54.457031 C 220.363281 54.960938 219.777344 66.859375 207.773438 78.363281 Z M 207.773438 78.363281 " fill-opacity="1" fill-rule="nonzero"/></g></svg>