<svg xmlns="http://www.w3.org/2000/svg" xmlns:xlink="http://www.w3.org/1999/xlink" width="384" zoomAndPan="magnify" viewBox="0 0 288 287.999989" height="384" preserveAspectRatio="xMidYMid meet" version="1.0"><defs><clipPath id="3c509837f0"><path d="M 8.746094 58.367188 L 279.496094 58.367188 L 279.496094 254 L 8.746094 254 Z M 8.746094 58.367188 " clip-rule="nonzero"/></clipPath></defs><g clip-path="url(#3c509837f0)"><path fill="#ffffff" d="M 91.070312 169.324219 C 90.015625 172.128906 88.1875 174.695312 86.039062 176.679688 C 85.988281 176.726562 85.941406 176.769531 85.890625 176.816406 C 86.160156 178.449219 86.484375 180.136719 86.472656 181.75 C 86.472656 182.414062 86.40625 183.097656 86.292969 183.785156 C 86.300781 183.859375 86.304688 183.9375 86.308594 184.015625 C 86.394531 185.324219 86.234375 186.589844 86.257812 187.890625 C 86.277344 189.011719 86.460938 190.113281 86.554688 191.226562 C 86.585938 191.574219 86.613281 191.914062 86.636719 192.253906 C 86.886719 193.167969 87.105469 194.09375 87.320312 195.003906 C 87.554688 195.972656 87.894531 196.957031 87.964844 197.957031 C 88 198.460938 87.902344 198.910156 87.753906 199.347656 C 87.816406 199.554688 87.878906 199.761719 87.929688 199.96875 C 88.109375 200.714844 88.230469 201.5 88.25 202.269531 C 88.269531 203.132812 88.074219 203.820312 88.289062 204.695312 C 88.3125 204.78125 88.335938 204.871094 88.359375 204.960938 C 88.757812 205.664062 89.136719 206.375 89.433594 207.128906 C 89.707031 207.820312 89.796875 208.554688 89.871094 209.289062 C 89.914062 209.503906 89.9375 209.71875 89.933594 209.941406 C 90 210.574219 90.089844 211.199219 90.308594 211.792969 C 90.714844 212.902344 91.546875 213.753906 92.003906 214.824219 C 92.234375 215.363281 92.332031 215.960938 92.363281 216.574219 C 92.582031 217.132812 92.726562 217.726562 92.835938 218.277344 C 93.121094 219.710938 93.203125 221.101562 93.394531 222.542969 C 93.691406 224.804688 94.371094 226.984375 94.4375 229.277344 C 94.476562 230.585938 94.117188 231.875 94.355469 233.152344 C 94.527344 233.304688 94.695312 233.453125 94.867188 233.601562 C 95.386719 234.050781 96.367188 234.316406 96.609375 235.011719 C 96.738281 235.382812 96.664062 235.832031 96.636719 236.214844 C 96.617188 236.527344 96.585938 236.84375 96.542969 237.15625 C 96.78125 237.324219 96.980469 237.523438 97.109375 237.761719 C 97.421875 238.324219 97.164062 239.070312 97.039062 239.652344 C 96.78125 240.832031 96.46875 242.046875 96.367188 243.253906 C 96.261719 244.4375 96.058594 245.78125 96.265625 246.960938 C 96.441406 247.953125 97.097656 248.777344 97.234375 249.777344 C 97.535156 251.941406 95.785156 253.355469 93.898438 253.742188 C 93.125 253.898438 92.363281 253.960938 91.578125 253.988281 C 90.304688 254.027344 88.742188 253.769531 87.832031 252.792969 C 87.292969 252.214844 87.460938 251.390625 87.601562 250.675781 C 87.839844 249.480469 88.324219 248.203125 88.382812 246.984375 C 88.386719 246.945312 88.386719 246.90625 88.386719 246.871094 C 88.269531 246.578125 88.152344 246.28125 88.046875 245.976562 C 87.664062 244.851562 87.179688 243.8125 86.953125 242.640625 C 86.753906 241.605469 86.808594 240.464844 86.441406 239.476562 C 86.121094 238.609375 85.113281 238.699219 84.765625 237.960938 C 84.695312 237.8125 84.632812 237.65625 84.578125 237.492188 C 84.136719 236.6875 84.003906 235.925781 84.007812 235.152344 C 83.679688 233.789062 83.441406 232.40625 83.148438 231.042969 C 82.367188 227.433594 80.628906 223.695312 81.21875 219.929688 C 81.226562 219.882812 81.230469 219.839844 81.238281 219.796875 C 81.011719 218.925781 80.824219 218.042969 80.554688 217.183594 C 79.855469 214.964844 79.089844 212.742188 78.585938 210.46875 C 78.296875 209.707031 78.027344 208.945312 77.769531 208.199219 C 77.421875 207.195312 76.964844 206.210938 76.730469 205.171875 C 76.710938 205.078125 76.6875 204.984375 76.667969 204.894531 C 76.324219 204.074219 75.992188 203.238281 75.65625 202.378906 C 75.148438 201.101562 74.65625 199.828125 74.203125 198.539062 C 73.742188 197.542969 73.347656 196.507812 72.945312 195.488281 C 71.652344 192.203125 70.769531 188.730469 69.074219 185.613281 C 68.394531 184.367188 67.46875 183.21875 66.78125 181.972656 C 66.394531 183.304688 65.886719 184.632812 65.109375 185.75 C 64.878906 186.085938 64.628906 186.386719 64.363281 186.664062 C 64.410156 187.121094 64.410156 187.578125 64.332031 188.03125 C 64.144531 189.132812 63.351562 190.039062 62.988281 191.082031 C 62.601562 192.183594 62.171875 193.367188 61.933594 194.511719 C 61.746094 195.394531 61.753906 196.265625 61.347656 197.089844 C 61.183594 197.414062 60.984375 197.707031 60.773438 197.984375 C 60.765625 198.027344 60.753906 198.070312 60.746094 198.109375 C 60.570312 199.003906 60.597656 199.914062 60.5 200.820312 C 60.414062 201.628906 60.128906 202.394531 60.015625 203.199219 C 59.898438 204.011719 60.03125 204.828125 59.941406 205.640625 C 59.820312 206.710938 59.34375 207.515625 58.878906 208.398438 C 58.890625 209.71875 58.984375 211.089844 58.800781 212.375 C 58.695312 213.105469 58.347656 213.78125 58.296875 214.519531 C 58.203125 215.816406 58.679688 217.054688 58.597656 218.339844 C 58.515625 219.621094 58.476562 221.089844 58.160156 222.335938 C 57.839844 223.582031 57.234375 224.820312 57.355469 226.140625 C 57.53125 228.0625 57.75 230.113281 57.421875 232.03125 C 57.1875 233.394531 56.699219 234.667969 56.59375 236.078125 C 56.527344 237.03125 56.597656 238.386719 56.078125 239.289062 C 56.472656 239.878906 57.046875 240.492188 57.066406 241.234375 C 57.09375 242.070312 56.761719 243.757812 56.203125 244.421875 C 55.683594 245.035156 54.847656 244.960938 54.808594 245.949219 C 54.761719 247.183594 54.996094 248.46875 55.101562 249.703125 C 55.164062 250.445312 55.46875 251.15625 54.667969 251.570312 C 53.542969 252.148438 52.285156 252.269531 51.066406 252.53125 C 49.738281 252.816406 48.417969 253.25 47.03125 253.167969 C 46.324219 253.128906 45.65625 252.992188 44.945312 253.03125 C 43.246094 253.121094 41.539062 253.449219 39.847656 253.472656 C 38.6875 253.488281 35.597656 253.625 35.304688 252.152344 C 35.125 251.242188 35.496094 250.683594 36.109375 250.066406 C 37.429688 248.742188 39.234375 248.480469 40.722656 247.414062 C 41.371094 246.949219 42.046875 246.234375 42.363281 245.484375 C 42.734375 244.59375 42.710938 243.578125 43.164062 242.707031 C 43.222656 242.597656 43.292969 242.5 43.371094 242.40625 C 43.316406 242.238281 43.269531 242.074219 43.234375 241.929688 C 42.789062 240.105469 43.878906 239.492188 44.691406 238.136719 C 44.792969 237.964844 44.9375 237.816406 45.070312 237.65625 C 44.867188 237.34375 44.710938 236.988281 44.613281 236.582031 C 44.285156 235.191406 44.984375 233.847656 45.320312 232.558594 C 45.464844 232.019531 45.378906 231.410156 45.480469 230.855469 C 45.804688 229.03125 46.304688 227.238281 46.527344 225.394531 C 46.832031 222.875 46.105469 220.515625 46.097656 218.027344 C 46.09375 216.035156 46.628906 214.203125 46.902344 212.261719 C 47.105469 210.832031 47.28125 209.066406 47.554688 207.359375 C 47.507812 207.195312 47.464844 207.019531 47.433594 206.832031 C 47.316406 206.078125 47.324219 206.109375 47.351562 205.414062 C 47.386719 204.539062 47.332031 203.671875 47.34375 202.796875 C 47.378906 200.089844 48.257812 197.542969 48.582031 194.882812 C 48.8125 192.980469 48.945312 191.007812 48.929688 189.09375 C 48.914062 187.617188 48.691406 186.140625 48.738281 184.667969 C 48.78125 183.195312 49.066406 181.769531 49.1875 180.304688 C 49.28125 179.183594 49.433594 178.074219 49.617188 176.96875 L 49.398438 176.738281 C 49.242188 174.09375 49.289062 171.914062 50.570312 169.5625 C 50.8125 169.117188 51.042969 168.65625 51.269531 168.183594 C 51.453125 166.894531 51.492188 165.546875 51.761719 164.273438 C 51.738281 163.824219 51.753906 163.378906 51.855469 162.953125 C 52.089844 161.964844 52.695312 161.027344 53 160.050781 C 53.164062 159.527344 53.097656 158.960938 53.226562 158.429688 C 53.316406 158.058594 53.496094 157.753906 53.507812 157.363281 C 53.527344 156.835938 53.46875 156.316406 53.390625 155.804688 C 52.410156 155.929688 51.453125 156.175781 50.46875 156.285156 C 49.101562 156.441406 47.714844 156.445312 46.339844 156.449219 C 45.464844 156.457031 44.566406 156.519531 43.691406 156.570312 C 43.0625 156.609375 42.441406 156.714844 41.835938 156.476562 C 41.652344 156.402344 41.496094 156.304688 41.359375 156.1875 C 40.699219 156.03125 40.289062 155.488281 39.839844 154.976562 C 39.257812 154.308594 38.679688 153.59375 38.417969 152.730469 C 38.308594 152.378906 38.273438 152 38.191406 151.640625 C 38.027344 150.933594 37.777344 150.253906 37.617188 149.539062 C 37.457031 148.824219 37.414062 148.078125 37.242188 147.371094 C 37.128906 146.886719 36.828125 146.453125 36.78125 145.9375 C 36.75 145.550781 36.886719 145.0625 37.003906 144.699219 C 37.183594 144.128906 37.480469 143.628906 37.75 143.105469 C 37.761719 143.078125 37.773438 143.054688 37.789062 143.03125 L 24.914062 136.433594 C 24.914062 136.433594 23.195312 135.851562 21.820312 137.425781 C 21.820312 137.425781 17.582031 134.53125 13.109375 132.492188 C 11.585938 131.796875 11.785156 132.597656 10.140625 132.492188 C 10.140625 132.492188 8.890625 131.527344 8.828125 130.488281 C 8.753906 129.265625 10.0625 127.941406 13.144531 127.945312 C 18.96875 127.957031 25.113281 131.125 25.113281 131.125 L 25.449219 132.910156 L 41.246094 140.589844 C 41.804688 140.367188 42.402344 140.265625 42.773438 140.894531 C 42.84375 141.011719 42.898438 141.144531 42.917969 141.28125 C 42.925781 141.324219 42.929688 141.367188 42.929688 141.410156 L 43.800781 141.832031 C 44.175781 141.644531 44.570312 141.492188 44.929688 141.457031 C 45.617188 141.390625 45.871094 142.203125 45.730469 142.773438 L 51.300781 145.484375 C 51.351562 145.253906 51.410156 145.027344 51.480469 144.800781 C 51.59375 144.449219 51.773438 144.140625 51.957031 143.824219 C 51.957031 143.808594 51.957031 143.796875 51.957031 143.78125 C 51.96875 141.660156 52.453125 139.582031 52.421875 137.460938 C 52.394531 135.355469 50.238281 133.714844 50.023438 131.613281 C 49.90625 130.445312 50.386719 129.109375 50.625 127.984375 C 51.089844 125.804688 51.394531 123.121094 53.269531 121.609375 C 53.917969 121.085938 55 121.046875 55.746094 120.695312 C 56.335938 120.414062 57.007812 120.082031 57.6875 119.933594 C 57.625 119.808594 57.566406 119.679688 57.511719 119.550781 C 57.496094 119.550781 57.480469 119.546875 57.464844 119.546875 C 57.269531 119.515625 56.984375 119.460938 56.871094 119.277344 C 56.8125 119.179688 56.773438 119.035156 56.75 118.875 C 56.675781 118.828125 56.601562 118.785156 56.519531 118.746094 C 55.835938 118.445312 54.796875 119.347656 54.214844 118.636719 C 53.898438 118.253906 53.753906 117.238281 53.640625 116.234375 C 53.28125 116.226562 52.921875 116.273438 52.566406 116.253906 C 51.339844 116.195312 50.144531 116.015625 48.9375 115.777344 C 48.121094 115.621094 47.164062 115.292969 46.566406 114.667969 C 44.964844 113 45.390625 110.296875 45.914062 108.261719 C 46.261719 106.910156 46.933594 105.660156 47.804688 104.5625 C 47.714844 104.363281 47.617188 104.167969 47.527344 103.945312 C 47.253906 103.273438 47 102.328125 46.957031 101.601562 C 46.890625 100.5625 47.488281 99.570312 47.964844 98.695312 C 48.425781 97.851562 48.925781 96.945312 49.601562 96.25 C 50.464844 95.367188 51.578125 94.765625 52.730469 94.371094 C 53.9375 93.953125 55.511719 93.539062 56.804688 93.703125 C 57 93.726562 57.195312 93.777344 57.386719 93.839844 C 58.726562 93.539062 60.28125 94.734375 60.996094 95.726562 C 61.050781 95.800781 61.101562 95.875 61.152344 95.953125 C 61.832031 95.902344 62.515625 95.894531 63.195312 95.960938 C 63.535156 95.992188 63.828125 96.171875 64.148438 96.265625 C 66.023438 96.800781 67.519531 98.402344 67.78125 100.371094 C 67.875 101.078125 67.84375 101.808594 67.710938 102.507812 C 67.617188 103.011719 67.5 103.503906 67.363281 103.988281 C 67.644531 105.804688 67.789062 107.628906 68.292969 109.371094 C 68.496094 109.617188 68.703125 109.851562 68.921875 110.078125 C 69.050781 110.089844 69.179688 110.109375 69.308594 110.136719 C 70 110.292969 70.652344 110.605469 71.304688 110.871094 C 77.296875 109.34375 83.878906 109.921875 89.652344 111.949219 C 89.941406 112.050781 90.121094 112.320312 90.117188 112.609375 C 90.175781 112.664062 90.222656 112.738281 90.257812 112.820312 L 90.804688 101.570312 C 88.007812 101.515625 85.207031 101.386719 82.394531 101.214844 C 78.503906 100.972656 71.945312 99.65625 68.464844 97.535156 C 68.230469 97.394531 68.109375 97.136719 68.132812 96.882812 C 68.082031 96.824219 68.039062 96.757812 68.003906 96.683594 C 67.851562 96.335938 68.011719 95.925781 68.359375 95.773438 C 74.957031 92.875 83.121094 92.089844 91.234375 92.667969 L 91.25 92.324219 C 91.277344 91.753906 91.765625 91.3125 92.335938 91.339844 C 92.90625 91.367188 93.347656 91.855469 93.320312 92.425781 L 93.304688 92.789062 C 94.75 92.859375 96.183594 92.996094 97.585938 93.230469 C 98.675781 93.410156 99.753906 93.632812 100.835938 93.8125 C 101.582031 93.9375 102.3125 94.101562 103.050781 94.261719 C 103.589844 94.378906 104.132812 94.449219 104.667969 94.578125 C 105.140625 94.695312 105.613281 94.835938 106.078125 94.976562 C 106.476562 95.097656 106.894531 95.210938 107.285156 95.355469 C 107.675781 95.496094 108.820312 95.839844 109.777344 96.296875 C 110.664062 96.589844 111.527344 96.890625 112.371094 97.207031 C 112.726562 97.339844 112.910156 97.738281 112.777344 98.09375 C 112.722656 98.238281 112.628906 98.351562 112.507812 98.429688 C 112.441406 98.558594 112.335938 98.667969 112.195312 98.734375 C 108.632812 100.460938 106.410156 101.054688 102.554688 101.316406 C 99.304688 101.535156 96.089844 101.617188 92.878906 101.59375 L 92.199219 115.644531 C 95.613281 115.347656 99.140625 115.648438 102.011719 116.328125 C 103.835938 116.765625 105.542969 117.558594 107.347656 118.007812 C 107.71875 118.101562 107.945312 118.476562 107.851562 118.847656 C 107.851562 118.847656 107.851562 118.851562 107.851562 118.855469 C 107.933594 119.140625 107.816406 119.457031 107.550781 119.625 C 104.976562 121.226562 102.03125 121.746094 99.070312 122.074219 C 98 122.195312 96.898438 122.28125 95.78125 122.316406 L 95.78125 125.902344 C 102.371094 122.144531 109.230469 120.367188 116.203125 120.222656 C 116.359375 120.011719 116.527344 119.8125 116.703125 119.613281 C 116.707031 119.609375 116.707031 119.609375 116.707031 119.605469 L 116.707031 118.855469 C 116.707031 118.28125 117.171875 117.816406 117.746094 117.816406 C 118.316406 117.816406 118.78125 118.28125 118.78125 118.855469 L 118.78125 119.328125 C 118.902344 119.628906 118.96875 119.941406 119.019531 120.25 C 125.957031 120.539062 132.980469 122.382812 139.949219 125.445312 C 140.300781 125.597656 140.457031 126.007812 140.304688 126.355469 C 140.1875 126.621094 139.925781 126.773438 139.65625 126.769531 C 139.070312 127.070312 138.429688 127.210938 137.789062 127.417969 C 136.726562 127.769531 135.628906 128.046875 134.527344 128.277344 C 134.75 131.1875 134.820312 134.042969 134.691406 136.953125 C 135.929688 136.75 137.195312 136.628906 138.480469 136.59375 C 139.46875 131.640625 141.554688 126.96875 143.183594 122.175781 C 143.160156 121.589844 143.140625 121.003906 143.125 120.414062 C 143.050781 120.335938 142.996094 120.238281 142.96875 120.125 C 142.90625 119.882812 142.980469 119.640625 143.136719 119.476562 C 143.226562 119.207031 143.476562 119.015625 143.773438 119.007812 C 143.910156 119 144.035156 119.039062 144.144531 119.101562 C 144.585938 117.527344 144.941406 115.933594 145.167969 114.308594 C 145.433594 112.367188 145.585938 110.421875 145.582031 108.472656 C 144.921875 105.296875 144.328125 102.097656 142.972656 99.132812 C 142.609375 98.339844 141.90625 97.335938 141.574219 96.332031 C 141.285156 96.332031 141 96.355469 140.71875 96.433594 C 139.457031 96.800781 138.738281 97.578125 137.773438 98.40625 C 135.992188 99.933594 133.8125 102.214844 131.285156 102.40625 C 130.171875 102.835938 129.03125 103.117188 127.808594 103.070312 C 127.476562 103.054688 126.878906 103.046875 126.457031 102.867188 C 126.242188 102.925781 126.027344 102.917969 125.890625 102.714844 C 125.703125 102.433594 125.789062 101.972656 125.824219 101.671875 C 125.953125 100.535156 126.261719 99.449219 126.613281 98.363281 C 126.984375 97.207031 127.414062 96.09375 127.875 95 C 127.886719 94.949219 127.898438 94.898438 127.90625 94.847656 L 127.929688 94.871094 C 128.375 93.828125 128.851562 92.796875 129.34375 91.753906 C 130.464844 89.390625 131.640625 87.230469 133.441406 85.316406 L 133.46875 85.378906 C 133.605469 85.121094 133.746094 84.867188 133.847656 84.605469 C 134.246094 83.605469 134.417969 82.65625 135.101562 81.769531 C 135.289062 81.527344 135.433594 81.210938 135.695312 81.03125 C 135.933594 80.871094 136.222656 80.910156 136.484375 80.808594 C 136.632812 80.746094 136.792969 80.671875 136.957031 80.613281 C 137.617188 79.109375 138.351562 77.65625 139.101562 76.183594 C 139.667969 75.082031 140.28125 74.011719 140.910156 72.945312 C 141.660156 71.679688 142.328125 70.371094 143.171875 69.167969 C 143.234375 69.074219 143.300781 68.984375 143.359375 68.886719 C 143.441406 68.753906 143.597656 68.320312 143.757812 68.246094 C 143.957031 68.144531 144.039062 68.183594 144.015625 68.4375 C 144.007812 68.507812 143.996094 68.578125 143.980469 68.644531 C 143.957031 68.742188 143.925781 68.832031 143.894531 68.921875 C 143.8125 69.152344 143.730469 69.371094 143.628906 69.589844 C 143.472656 69.929688 143.269531 70.222656 143.082031 70.542969 C 142.734375 71.140625 142.386719 71.730469 142.03125 72.324219 C 141.402344 73.375 140.785156 74.429688 140.175781 75.488281 C 139.320312 77.160156 138.496094 78.839844 137.675781 80.53125 C 138.078125 80.640625 138.25 81.175781 138.460938 81.484375 C 138.730469 81.886719 138.984375 82.28125 139.039062 82.773438 C 139.085938 83.199219 138.808594 83.613281 138.667969 83.996094 C 138.324219 84.960938 137.976562 85.785156 137.332031 86.597656 C 136.886719 87.160156 136.308594 87.414062 135.777344 87.875 C 135.449219 88.164062 135.128906 88.46875 134.816406 88.78125 C 133.914062 90.90625 133.199219 93.097656 132.230469 95.207031 C 132.140625 95.398438 132.054688 95.585938 131.960938 95.777344 C 132.84375 94.941406 133.761719 94.152344 134.605469 93.277344 C 136.386719 91.425781 138.410156 89.316406 140.898438 88.4375 C 141.871094 88.089844 143.0625 88.074219 144.082031 88.066406 C 144.460938 88.0625 144.828125 88.019531 145.195312 87.996094 C 145.433594 87.070312 145.726562 86.171875 145.886719 85.21875 C 146.203125 83.296875 146.238281 81.351562 147.160156 79.570312 C 148.917969 76.179688 151.832031 73.523438 155.796875 73.628906 C 157.175781 73.667969 158.527344 73.753906 159.472656 74.914062 C 160.6875 76.40625 160.300781 79.160156 160.570312 80.949219 C 160.804688 82.511719 161.484375 83.878906 162.117188 85.277344 C 166.253906 85.34375 170.3125 86.59375 173.867188 88.621094 C 173.609375 88.050781 173.359375 87.355469 173.367188 86.722656 C 172.171875 85.933594 170.628906 85.492188 170.195312 84 C 169.878906 82.929688 169.867188 81.78125 169.738281 80.675781 C 169.734375 80.648438 169.730469 80.621094 169.722656 80.585938 C 168.285156 79.558594 167.050781 78.175781 165.789062 76.976562 C 163.777344 75.058594 161.6875 73.25 159.660156 71.355469 C 158.535156 70.300781 157.382812 69.300781 156.179688 68.335938 C 155.585938 67.851562 154.988281 67.445312 154.460938 66.882812 C 154.433594 66.855469 154.039062 66.496094 154.136719 66.445312 C 154.589844 66.214844 155.230469 66.664062 155.585938 66.894531 C 157.007812 67.824219 158.300781 69.003906 159.65625 70.023438 C 162.652344 72.273438 165.390625 74.875 168.226562 77.324219 C 169.0625 78.050781 169.917969 78.75 170.777344 79.449219 C 170.84375 79.449219 170.902344 79.449219 170.949219 79.449219 C 171.988281 79.429688 173.21875 79.773438 173.980469 80.515625 C 174.8125 81.328125 175.472656 82.253906 176.144531 83.195312 C 176.441406 83.617188 176.800781 84.035156 176.945312 84.535156 C 177.078125 84.988281 177.144531 85.449219 177.203125 85.910156 C 178.078125 86.800781 178.632812 88.234375 179.210938 89.496094 C 180.394531 89.375 181.582031 89.285156 182.769531 89.226562 C 182.773438 89.203125 182.773438 89.175781 182.78125 89.152344 C 183.023438 87.929688 183.867188 87.25 184.746094 87.125 C 185.640625 87 186.625 87.433594 187.136719 88.585938 C 187.21875 88.773438 187.214844 88.972656 187.136719 89.144531 C 194.203125 89.230469 201.25 90.378906 208.015625 92.5625 C 208.382812 92.675781 208.582031 93.066406 208.464844 93.429688 C 208.398438 93.601562 208.28125 93.742188 208.132812 93.820312 C 208.066406 93.914062 207.949219 93.984375 207.835938 94.027344 C 206.773438 94.378906 205.730469 94.578125 204.667969 94.722656 C 202.496094 95.195312 200.253906 95.414062 198.03125 95.847656 C 194.183594 96.589844 190.304688 97.03125 186.410156 97.207031 L 186.578125 106.941406 C 188.894531 106.40625 191.332031 106.066406 193.789062 105.960938 L 193.789062 105.769531 C 193.789062 105.199219 194.269531 104.738281 194.832031 104.746094 C 195.414062 104.753906 195.859375 105.226562 195.859375 105.796875 L 195.859375 105.929688 C 200.933594 105.992188 205.910156 107.105469 209.726562 109.609375 C 209.890625 109.714844 209.992188 109.871094 210.023438 110.039062 C 210.105469 110.089844 210.191406 110.15625 210.238281 110.242188 C 210.457031 110.554688 210.371094 110.984375 210.058594 111.199219 C 205.761719 114.105469 200.753906 114.707031 195.746094 114.5 L 195.394531 141.921875 C 195.429688 141.945312 195.460938 141.96875 195.496094 142 L 198.847656 144.867188 L 210.703125 128.296875 C 210.804688 128.160156 210.9375 128.050781 211.070312 127.980469 C 211.152344 127.9375 211.25 127.902344 211.351562 127.882812 C 211.367188 127.863281 211.382812 127.839844 211.402344 127.816406 C 211.484375 127.726562 211.550781 127.648438 211.601562 127.582031 L 211.46875 125.382812 C 208.265625 125.84375 204.914062 125.945312 201.898438 125.621094 C 201.183594 125.542969 198.761719 125.542969 197.535156 125.015625 C 196.871094 124.726562 196.492188 124.269531 196.441406 123.738281 C 196.40625 123.296875 196.605469 122.683594 197.386719 121.972656 C 197.769531 121.617188 198.230469 121.277344 198.714844 121.050781 C 198.976562 120.921875 199.277344 120.800781 199.558594 120.6875 C 198.976562 120.113281 198.796875 119.421875 198.910156 118.773438 C 199.078125 117.835938 199.941406 116.867188 201.417969 116.433594 C 204.285156 115.589844 207.902344 115.511719 210.902344 116.046875 L 210.523438 109.625 C 210.472656 109.054688 210.917969 108.5625 211.484375 108.527344 C 212.0625 108.496094 212.546875 108.929688 212.578125 109.5 L 213.007812 116.703125 C 213.90625 117.128906 214.683594 117.703125 215.097656 118.257812 C 215.53125 118.832031 215.628906 119.421875 215.398438 119.902344 C 215.296875 120.132812 215.117188 120.359375 214.816406 120.546875 C 214.898438 120.574219 214.984375 120.605469 215.066406 120.636719 C 215.8125 120.933594 216.492188 121.316406 216.875 121.742188 C 217.171875 122.089844 217.320312 122.472656 217.289062 122.867188 C 217.273438 123.207031 217.105469 123.585938 216.707031 123.960938 C 216.640625 124.15625 216.476562 124.316406 216.261719 124.375 C 215.382812 124.625 214.46875 124.84375 213.523438 125.03125 L 213.6875 127.863281 L 217.253906 127.863281 L 218.25 91.929688 C 216.160156 91.902344 214.054688 91.703125 211.996094 91.390625 C 210.457031 91.15625 208.894531 91.074219 207.386719 90.679688 C 205.496094 90.183594 203.539062 90.089844 201.730469 89.3125 C 201.617188 89.261719 201.417969 89.171875 201.21875 89.058594 C 201.019531 89.042969 200.820312 88.929688 200.6875 88.738281 C 200.652344 88.675781 200.621094 88.609375 200.605469 88.542969 C 200.488281 88.371094 200.4375 88.183594 200.519531 87.984375 C 200.605469 87.820312 200.867188 87.753906 201.050781 87.695312 C 203.707031 86.070312 207.320312 85.441406 210.324219 84.855469 C 212.828125 84.363281 215.347656 84.078125 217.851562 83.96875 C 217.867188 83.714844 217.851562 83.410156 217.886719 83.125 C 217.917969 82.796875 217.984375 82.488281 218.132812 82.242188 C 218.5 81.648438 219.144531 81.382812 219.808594 81.410156 C 220.421875 81.4375 221.035156 81.714844 221.402344 82.140625 C 221.632812 82.402344 221.765625 82.710938 221.847656 83.042969 C 221.914062 83.332031 221.933594 83.644531 221.980469 83.933594 C 224.585938 84 227.207031 84.222656 229.808594 84.5625 C 232.8125 84.953125 236.03125 85.453125 238.832031 86.636719 C 239.148438 86.769531 239.3125 87.109375 239.246094 87.429688 C 239.230469 87.683594 239.03125 87.929688 238.765625 88.136719 C 238.683594 88.234375 238.582031 88.308594 238.449219 88.351562 C 238.300781 88.441406 238.152344 88.515625 238.019531 88.578125 C 235.78125 89.566406 233.011719 90.105469 230.605469 90.484375 C 227.539062 90.964844 224.503906 91.582031 221.402344 91.828125 C 221.035156 91.855469 220.6875 91.878906 220.324219 91.894531 L 219.113281 136.066406 C 219.195312 135.792969 219.277344 135.515625 219.328125 135.230469 C 219.394531 134.636719 219.277344 133.996094 219.476562 133.421875 C 219.726562 132.621094 220.355469 132.378906 220.804688 131.742188 C 220.886719 131.621094 220.96875 131.5 221.054688 131.378906 C 220.921875 130.148438 220.074219 128.875 220.375 127.691406 C 220.605469 126.738281 221.601562 126.011719 222 125.121094 C 222.511719 123.996094 222.445312 122.785156 223.078125 121.703125 L 222.5625 121.984375 C 222.761719 121.625 223.058594 121.390625 223.425781 121.207031 C 224.601562 119.753906 226.542969 119.328125 228.167969 118.523438 C 229.148438 118.046875 230.042969 117.445312 230.972656 116.894531 C 230.640625 116.546875 230.523438 116.109375 230.390625 115.644531 C 229.777344 115.507812 229.695312 114.769531 229.644531 114.070312 C 229.230469 114.175781 228.75 114.554688 228.449219 114.644531 C 228.285156 114.691406 227.835938 114.871094 227.671875 114.707031 C 227.371094 114.425781 227.503906 113.898438 227.503906 113.546875 C 227.503906 112.988281 227.4375 112.4375 227.355469 111.882812 C 227.304688 111.460938 227.421875 110.835938 227.273438 110.445312 C 227.171875 110.207031 226.941406 110.03125 226.757812 109.835938 L 226.609375 109.742188 C 226.0625 108.691406 226.460938 107.007812 225.515625 106.179688 C 224.703125 105.464844 223.789062 104.863281 222.910156 104.230469 C 222.496094 103.929688 222 103.835938 222.03125 103.230469 C 222.066406 102.105469 223.242188 100.871094 223.804688 99.988281 C 224.585938 98.765625 225.101562 97.007812 226.261719 96.078125 C 227.105469 95.394531 228.085938 95.207031 229.113281 95.160156 C 229.34375 94.925781 229.609375 94.710938 229.894531 94.550781 C 232.296875 93.230469 235.183594 93.628906 237.304688 95.300781 C 239.128906 96.730469 240.855469 98.347656 241.570312 100.648438 C 242.347656 103.203125 241.800781 106.167969 243.078125 108.585938 C 243.757812 109.855469 244.835938 111.160156 245.832031 112.203125 C 246.011719 112.394531 246.210938 112.589844 246.410156 112.789062 C 247.96875 111.890625 249.664062 111.203125 251.070312 110.058594 C 252.433594 108.949219 253.226562 107.5 254.472656 106.292969 C 254.636719 106.136719 254.804688 106.023438 255.003906 105.933594 L 258.253906 102.257812 C 258.652344 101.621094 259.03125 101 259.449219 100.394531 C 259.894531 99.34375 260.527344 98.425781 261.105469 97.445312 C 261.800781 95.34375 262.730469 93.207031 263.710938 91.289062 C 264.074219 90.566406 264.441406 89.597656 264.988281 88.949219 C 265.433594 87.621094 266 86.339844 266.546875 85.003906 C 266.976562 83.925781 267.011719 82.726562 268.054688 81.996094 C 268.121094 81.945312 268.1875 81.902344 268.269531 81.859375 C 268.4375 81.355469 268.601562 80.84375 268.785156 80.34375 C 269.082031 79.613281 269.480469 78.921875 269.746094 78.179688 C 270.292969 76.617188 270.859375 75.0625 271.453125 73.511719 C 271.851562 72.449219 272.367188 71.429688 272.78125 70.378906 C 272.929688 70.046875 272.996094 69.582031 273.179688 69.199219 C 273.03125 68.769531 272.929688 68.328125 272.765625 67.90625 C 272.417969 67.042969 272.035156 66.207031 271.804688 65.304688 C 271.636719 64.695312 271.570312 64 271.570312 63.367188 C 271.585938 62.808594 271.785156 62.230469 271.886719 61.679688 C 272.003906 61.089844 272.019531 60.238281 272.398438 59.699219 C 272.367188 59.445312 272.316406 59.132812 272.398438 58.945312 C 272.683594 58.371094 273.179688 58.472656 273.710938 58.605469 C 273.925781 58.660156 274.160156 58.648438 274.355469 58.765625 C 274.472656 58.835938 274.574219 58.917969 274.671875 59.007812 C 274.886719 59.03125 275.136719 59.082031 275.253906 59.214844 C 275.269531 59.234375 275.285156 59.253906 275.285156 59.273438 C 275.683594 59.429688 276.082031 59.617188 276.332031 59.910156 C 276.613281 60.214844 276.777344 60.539062 276.894531 60.878906 C 277.011719 60.882812 277.128906 60.957031 277.257812 61.003906 C 277.757812 61.195312 278.054688 61.71875 278.1875 62.257812 C 278.488281 62.152344 278.867188 62.160156 279.050781 62.410156 C 279.234375 62.644531 279.25 62.933594 279.25 63.222656 C 279.214844 63.917969 279.085938 64.605469 278.933594 65.285156 C 278.902344 65.804688 278.851562 66.320312 278.753906 66.835938 C 278.585938 67.667969 278.269531 68.457031 278.054688 69.277344 C 277.890625 69.960938 277.824219 70.839844 277.410156 71.445312 C 277.34375 71.566406 277.242188 71.667969 277.128906 71.761719 C 277.09375 71.886719 277.0625 72.007812 277.027344 72.121094 C 276.746094 73.425781 276.445312 74.726562 276.199219 76.039062 C 275.75 78.265625 275.5 80.535156 275.039062 82.757812 C 274.789062 83.957031 274.355469 85.121094 274.007812 86.289062 C 273.695312 87.375 273.378906 88.421875 272.914062 89.414062 C 272.847656 89.632812 272.765625 89.84375 272.699219 90.058594 C 272.332031 91.222656 271.785156 92.339844 271.289062 93.492188 C 271.140625 93.820312 271.191406 94.191406 271.058594 94.527344 C 270.875 95.019531 270.460938 95.347656 270.34375 95.898438 C 270.195312 96.578125 270.160156 97.289062 269.929688 97.957031 C 269.761719 98.449219 269.449219 98.890625 269.234375 99.367188 C 268.769531 100.453125 268.386719 101.558594 268.054688 102.699219 C 267.492188 104.707031 267.011719 106.777344 266.164062 108.695312 C 265.484375 110.257812 264.421875 111.617188 263.210938 112.789062 C 261.1875 118.125 259.414062 123.863281 259.132812 129.476562 C 258.898438 134.269531 259.265625 138.859375 258.636719 143.566406 C 259 146.214844 259.578125 148.808594 260.460938 151.230469 C 262.101562 151.800781 263.609375 152.75 264.9375 154.265625 C 269.28125 159.226562 270.09375 169.121094 264.023438 173.125 C 263.710938 173.332031 263.378906 173.507812 263.046875 173.664062 C 263.445312 175.476562 263.578125 177.304688 263.808594 179.171875 C 264.023438 180.917969 264.390625 182.644531 264.554688 184.402344 C 264.65625 185.503906 264.769531 186.601562 264.902344 187.699219 C 267.492188 189.882812 268.15625 193.574219 269.449219 196.53125 C 269.679688 197.0625 270.972656 198.785156 271.007812 199.277344 C 271.074219 200.566406 269.664062 201.5 268.46875 201.355469 C 268.269531 201.332031 268.070312 201.285156 267.871094 201.222656 C 267.671875 201.519531 267.492188 201.828125 267.359375 202.152344 C 266.792969 203.632812 267.078125 205.113281 265.75 206.292969 C 264.191406 207.679688 262.183594 207.535156 260.34375 206.875 C 259.28125 206.503906 258.1875 206.089844 257.292969 205.425781 C 253.957031 202.992188 253.292969 198.289062 252.316406 194.648438 C 251.882812 193.023438 251.621094 191.21875 250.839844 189.710938 C 250.160156 188.417969 248.898438 187.824219 247.886719 186.84375 C 246.976562 185.964844 246.34375 184.878906 245.683594 183.816406 C 245.449219 183.460938 245.21875 183.105469 244.96875 182.746094 C 244.320312 183.488281 243.660156 184.1875 242.996094 184.84375 C 242.714844 185.128906 242.414062 185.402344 242.097656 185.664062 C 241.351562 186.453125 240.589844 187.222656 239.828125 187.953125 C 238.816406 188.925781 237.769531 189.726562 236.957031 190.902344 C 235.679688 192.773438 235.996094 195.097656 234.984375 197.101562 C 234.371094 198.316406 233.078125 199.003906 232.265625 200.050781 C 231.785156 200.65625 231.367188 201.316406 230.953125 201.980469 C 230.921875 202.078125 230.886719 202.179688 230.871094 202.277344 C 229.976562 205.613281 230.058594 208.25 228.285156 210.878906 C 228.152344 211.671875 227.984375 212.464844 227.785156 213.25 C 226.527344 218.339844 224.402344 223.199219 223.375 228.371094 C 223.09375 229.867188 222.710938 231.328125 222.695312 232.867188 C 222.660156 234.234375 223.324219 235.71875 221.898438 236.507812 C 221.667969 236.640625 221.417969 236.734375 221.1875 236.792969 C 221.085938 237.058594 221.003906 237.328125 220.988281 237.617188 C 220.902344 238.878906 221.054688 242.132812 220.722656 243.25 C 220.570312 243.71875 220.324219 244.074219 220.007812 244.328125 C 220.023438 244.597656 220.023438 244.867188 220.058594 245.125 C 220.222656 246.601562 221.101562 248.742188 219.542969 249.773438 C 218.996094 250.140625 218.050781 250.1875 217.421875 250.289062 C 216.078125 250.503906 214.734375 250.777344 213.40625 251.074219 C 212.097656 251.371094 210.9375 252.089844 209.675781 252.535156 C 209.246094 252.695312 208.746094 252.691406 208.28125 252.8125 C 206.722656 253.230469 205.246094 253.675781 203.621094 253.914062 C 202.890625 254.027344 202.128906 253.976562 201.398438 253.957031 C 200.820312 253.945312 200.273438 254.074219 199.707031 253.898438 C 199.34375 253.78125 199.109375 253.574219 199.027344 253.328125 C 198.796875 253.273438 198.597656 253.175781 198.464844 253.007812 C 197.785156 252.1875 198.976562 250.519531 199.574219 250.074219 C 201.617188 248.515625 203.722656 247.171875 205.3125 245.082031 C 206.058594 244.109375 206.625 243.011719 207.1875 241.925781 C 207.023438 241.773438 206.839844 241.628906 206.707031 241.453125 C 206.308594 240.949219 206.507812 239.917969 206.492188 239.347656 C 206.492188 238.847656 206.441406 238.234375 206.839844 237.851562 C 207.289062 237.414062 208.183594 237.550781 208.914062 237.59375 C 209.027344 237.09375 209.277344 236.609375 209.328125 236.019531 C 209.410156 234.648438 209.941406 233.4375 210.039062 232.085938 C 210.105469 231.140625 209.792969 230.136719 210.105469 229.226562 C 210.4375 228.292969 211.863281 227.488281 212.546875 226.875 C 212.628906 226.800781 212.726562 226.710938 212.808594 226.609375 C 212.941406 225.472656 213.007812 224.3125 213.160156 223.183594 C 213.820312 218.023438 214.785156 212.871094 216.175781 207.882812 C 216.742188 205.882812 217.253906 203.582031 218.367188 201.730469 C 218.765625 200.761719 219.277344 199.8125 219.410156 199.226562 C 219.757812 197.660156 219.792969 196.074219 220.242188 194.507812 C 221.003906 191.90625 222.28125 189.519531 223.175781 186.972656 C 223.773438 185.273438 223.9375 183.460938 224.203125 181.695312 C 225.066406 175.785156 228.648438 170.75 230.160156 164.785156 C 230.242188 164.234375 230.355469 163.691406 230.507812 163.15625 C 230.523438 163.113281 230.523438 163.066406 230.539062 163.023438 L 230.554688 163.019531 C 230.589844 162.90625 230.621094 162.789062 230.671875 162.675781 C 230.9375 161.925781 231.535156 161.511719 231.832031 160.828125 C 231.933594 160.628906 232 160.429688 232.066406 160.234375 L 218.566406 155.457031 L 218.417969 160.796875 C 218.417969 160.851562 218.417969 160.910156 218.398438 160.964844 L 223.027344 167.660156 C 223.359375 168.128906 223.226562 168.773438 222.761719 169.097656 C 222.296875 169.425781 221.648438 169.308594 221.320312 168.835938 L 213.554688 157.585938 C 213.441406 157.429688 213.390625 157.25 213.375 157.058594 L 213.324219 156.308594 C 212.394531 156.894531 211.433594 157.441406 210.421875 157.941406 C 209.59375 158.355469 208.714844 158.621094 207.835938 158.945312 C 207.519531 159.066406 207.171875 159.203125 206.824219 159.335938 L 215.496094 175.464844 C 215.761719 175.96875 215.578125 176.597656 215.066406 176.867188 C 214.570312 177.140625 213.9375 176.949219 213.671875 176.445312 L 212.59375 174.453125 L 211.898438 174.207031 C 211.714844 174.3125 211.5 174.335938 211.300781 174.257812 L 203.523438 171.230469 L 185.125 164.691406 L 184.726562 165.484375 L 184.726562 175.957031 C 184.726562 176.335938 184.414062 176.648438 184.035156 176.648438 L 183.71875 176.648438 C 183.519531 176.871094 183.226562 177.003906 182.90625 176.992188 C 182.609375 176.980469 182.347656 176.84375 182.167969 176.636719 C 182.113281 176.628906 182.058594 176.609375 182.011719 176.589844 L 177.242188 190.726562 C 177.382812 190.976562 177.417969 191.285156 177.320312 191.578125 L 175.675781 196.363281 C 175.492188 196.902344 174.898438 197.191406 174.359375 197.003906 C 173.816406 196.820312 173.53125 196.230469 173.714844 195.6875 L 175.359375 190.902344 C 175.457031 190.617188 175.671875 190.398438 175.933594 190.285156 L 181.507812 173.761719 L 174.667969 165.667969 C 174.628906 165.664062 174.59375 165.660156 174.558594 165.65625 L 167.71875 171.488281 L 167.695312 171.921875 C 167.691406 172 167.679688 172.078125 167.65625 172.152344 L 171.625 193.9375 C 171.726562 194.5 171.351562 195.039062 170.789062 195.144531 C 170.226562 195.246094 169.6875 194.871094 169.585938 194.308594 L 167.03125 180.28125 L 165.621094 174.109375 C 162.691406 183.863281 151.886719 191.179688 138.941406 191.179688 C 126.304688 191.179688 115.710938 184.207031 112.484375 174.804688 L 107.570312 194.292969 C 107.476562 194.660156 107.101562 194.886719 106.730469 194.792969 C 106.359375 194.699219 106.136719 194.324219 106.226562 193.953125 L 111.761719 172.015625 C 111.574219 170.960938 111.476562 169.882812 111.476562 168.789062 C 111.476562 168.710938 111.476562 168.632812 111.476562 168.558594 L 103.195312 176.257812 L 103.195312 194.125 C 103.195312 194.503906 102.886719 194.816406 102.503906 194.816406 C 102.125 194.816406 101.816406 194.503906 101.816406 194.125 L 101.816406 176.289062 L 92.070312 168.621094 Z M 86.699219 136.902344 C 86.574219 138.429688 86.292969 139.949219 86.019531 141.5625 C 85.738281 143.257812 85.597656 144.96875 85.367188 146.667969 C 85.527344 146.515625 85.691406 146.363281 85.84375 146.210938 C 86.636719 145.421875 87.460938 144.726562 88.308594 144 C 88.964844 143.429688 89.6875 142.636719 90.496094 142.128906 C 90.179688 141.738281 89.839844 141.351562 89.671875 140.878906 C 89.589844 140.648438 89.578125 140.425781 89.566406 140.203125 C 89.230469 140.136719 88.90625 140.023438 88.789062 139.796875 C 88.714844 139.648438 88.78125 139.425781 88.757812 139.269531 C 88.75 139.222656 88.742188 139.175781 88.730469 139.132812 Z M 95.195312 148.972656 C 95.070312 149.011719 94.902344 149.046875 94.828125 149.0625 C 94.769531 149.070312 94.710938 149.078125 94.652344 149.085938 C 94.242188 149.464844 93.667969 149.613281 93.1875 149.867188 C 92.792969 150.078125 92.402344 150.285156 92.019531 150.5 C 91.515625 151.011719 90.941406 151.453125 90.390625 151.902344 C 89.972656 152.242188 89.550781 152.574219 89.128906 152.90625 C 89.824219 153.898438 90.492188 154.90625 90.996094 156.011719 C 91.308594 156.699219 91.550781 157.421875 91.742188 158.164062 L 91.902344 158.054688 C 92.015625 157.976562 92.148438 157.9375 92.285156 157.9375 L 95.574219 157.9375 Z M 216.855469 142.21875 L 216.890625 141.085938 L 214.320312 138.398438 L 214.800781 146.285156 C 214.949219 146.132812 215.097656 145.96875 215.214844 145.792969 C 215.398438 145.53125 215.28125 145.300781 215.429688 145.042969 C 215.644531 144.71875 215.960938 144.484375 216.144531 144.15625 C 216.359375 143.777344 216.277344 143.339844 216.425781 142.945312 C 216.542969 142.679688 216.691406 142.445312 216.855469 142.21875 Z M 212.792969 147.347656 L 212.261719 138.742188 L 202.957031 146.28125 L 211.035156 148.496094 C 211.070312 148.441406 211.101562 148.386719 211.136719 148.339844 C 211.5 147.84375 212.179688 147.617188 212.710938 147.382812 C 212.742188 147.371094 212.761719 147.359375 212.792969 147.347656 Z M 192.492188 142.921875 L 193.324219 142.164062 L 193.671875 114.371094 C 193.191406 114.332031 192.710938 114.289062 192.226562 114.238281 C 190.386719 114.050781 188.511719 113.785156 186.691406 113.355469 L 187.136719 139.109375 L 190.074219 142.894531 C 190.652344 142.917969 191.214844 142.933594 191.746094 142.933594 C 192.011719 142.929688 192.261719 142.925781 192.492188 142.921875 Z M 187.335938 142.746094 L 187.199219 142.570312 L 187.203125 142.738281 C 187.246094 142.742188 187.292969 142.746094 187.335938 142.746094 Z M 185.125 142.648438 L 185.078125 139.832031 L 184.988281 139.71875 C 184.933594 140.683594 184.863281 141.660156 184.804688 142.640625 C 184.910156 142.640625 185.019531 142.644531 185.125 142.648438 Z M 184.726562 146.328125 L 184.726562 148.101562 C 184.886719 149.429688 185.132812 150.742188 185.546875 152.015625 L 188.03125 147.257812 C 187.269531 146.996094 186.542969 146.765625 185.925781 146.597656 C 185.457031 146.46875 185.058594 146.382812 184.726562 146.328125 Z M 190.039062 147.984375 L 189.941406 148.074219 L 186.746094 154.203125 C 186.976562 154.546875 187.222656 154.90625 187.464844 155.273438 C 187.480469 155.289062 187.5 155.308594 187.515625 155.328125 L 189.042969 152.285156 L 190.800781 148.273438 C 190.554688 148.175781 190.289062 148.082031 190.039062 147.984375 Z M 192.957031 149.121094 L 190.917969 153.1875 C 190.917969 153.191406 190.902344 153.195312 190.902344 153.199219 L 188.996094 156.992188 C 189.242188 157.304688 189.441406 157.609375 189.589844 157.898438 C 189.824219 158.363281 189.90625 158.808594 189.855469 159.214844 C 189.691406 160.464844 188.910156 161.367188 187.78125 161.953125 C 187.316406 162.191406 186.785156 162.378906 186.222656 162.507812 L 186.0625 162.824219 L 211.136719 171.734375 L 204.75 159.878906 C 204.71875 159.882812 204.683594 159.886719 204.652344 159.886719 C 204.566406 159.910156 204.5 159.929688 204.433594 159.941406 C 204.417969 159.941406 204.417969 159.945312 204.417969 159.945312 C 204.167969 160.015625 203.921875 160.128906 203.65625 160.117188 C 203.324219 160.105469 203.042969 159.9375 202.777344 159.707031 C 202.277344 159.453125 201.863281 158.984375 201.53125 158.535156 C 201.285156 158.273438 201.050781 158.011719 200.851562 157.773438 C 199.726562 156.347656 199.128906 154.632812 198.664062 152.886719 C 198.464844 152.128906 198.25 151.339844 198.164062 150.558594 C 198.117188 150.222656 198.082031 149.882812 198.050781 149.546875 L 195.347656 153.328125 C 195.3125 153.371094 195.28125 153.410156 195.246094 153.445312 L 195.214844 156.113281 C 195.214844 156.6875 194.734375 157.144531 194.167969 157.136719 C 193.589844 157.128906 193.140625 156.660156 193.140625 156.085938 L 193.222656 149.230469 C 193.140625 149.199219 193.058594 149.164062 192.957031 149.121094 Z M 91.816406 166.664062 L 92.117188 166.902344 L 95.84375 164.28125 L 95.632812 159.320312 L 92.496094 159.320312 L 92.035156 159.628906 C 92.386719 161.960938 92.242188 164.414062 91.816406 166.664062 Z M 96.558594 148.503906 L 96.957031 157.9375 L 97.828125 157.9375 L 97.1875 147.925781 C 97.101562 147.945312 97.007812 147.957031 96.914062 147.960938 C 96.835938 148.171875 96.71875 148.359375 96.558594 148.503906 Z M 98.464844 146.226562 L 99.214844 157.9375 L 101.816406 157.9375 L 101.816406 128.902344 C 101.816406 128.855469 101.820312 128.808594 101.828125 128.765625 C 99.796875 128.386719 97.777344 127.925781 95.78125 127.382812 L 95.78125 130.21875 L 95.894531 132.84375 C 96.390625 133.820312 96.828125 134.8125 97.027344 135.925781 C 97.089844 136.277344 97.097656 136.640625 97.152344 136.996094 C 97.476562 137.488281 97.757812 138.011719 97.996094 138.519531 C 98.277344 139.113281 98.179688 139.707031 98.367188 140.3125 C 98.496094 140.71875 98.679688 141.125 98.726562 141.554688 C 98.757812 141.847656 98.679688 142.140625 98.707031 142.433594 C 98.746094 142.816406 98.894531 143.171875 98.949219 143.550781 C 99.03125 144.089844 98.886719 144.644531 98.640625 145.136719 C 98.636719 145.511719 98.597656 145.867188 98.464844 146.226562 Z M 94.398438 130.183594 L 94.398438 122.328125 C 93.625 122.316406 92.847656 122.28125 92.078125 122.207031 C 92.179688 122.730469 92.121094 123.304688 92.273438 123.816406 C 92.613281 124.957031 92.871094 126.109375 93.199219 127.25 C 93.5625 127.664062 93.984375 128.058594 94.054688 128.597656 C 94.097656 128.917969 93.894531 129.222656 93.929688 129.550781 C 93.9375 129.621094 93.953125 129.6875 93.96875 129.75 C 94.128906 129.878906 94.269531 130.023438 94.398438 130.183594 Z M 87.976562 116.359375 C 88.667969 116.175781 89.382812 116.023438 90.109375 115.902344 L 90.230469 113.421875 C 90.15625 113.554688 90.039062 113.667969 89.886719 113.730469 C 88.515625 114.292969 87.101562 114.726562 85.664062 115.054688 C 86.03125 115.1875 86.394531 115.339844 86.753906 115.515625 C 87.230469 115.746094 87.628906 116.03125 87.976562 116.359375 Z M 215.332031 155.023438 L 215.429688 156.648438 L 216.425781 158.09375 L 216.507812 154.730469 L 216.078125 154.570312 C 215.828125 154.71875 215.578125 154.871094 215.332031 155.023438 Z M 195.3125 148.835938 L 195.296875 149.835938 L 196.375 148.332031 Z M 231.1875 154.027344 C 231.1875 153.757812 231.203125 153.488281 231.269531 153.226562 C 231.617188 152.046875 232.3125 150.847656 233.042969 149.765625 L 232.8125 149.28125 C 232.066406 148.738281 231.171875 148.507812 230.289062 148.109375 C 230.074219 148.015625 229.828125 147.910156 229.59375 147.773438 C 229.628906 148.109375 229.578125 148.40625 229.195312 148.671875 C 228.898438 148.878906 228.53125 148.550781 228.332031 148.347656 C 227.804688 147.816406 227.554688 147.148438 227.304688 146.453125 C 226.90625 145.335938 226.625 144.375 226.476562 143.375 C 226.292969 143.542969 226.128906 143.707031 225.945312 143.867188 C 225.761719 144.019531 225.5625 144.175781 225.382812 144.324219 C 224.453125 146.058594 223.558594 147.863281 222.445312 149.488281 C 222.046875 150.085938 221.632812 150.726562 221.152344 151.269531 Z M 229.410156 139.941406 C 229.082031 141.503906 228.929688 143.113281 229.148438 144.667969 C 229.214844 145.183594 229.28125 145.695312 229.363281 146.207031 C 229.542969 146.078125 229.761719 145.984375 229.925781 145.925781 C 230.308594 145.796875 230.738281 145.621094 231.1875 145.480469 C 230.472656 143.628906 230.09375 141.484375 229.511719 139.820312 C 229.476562 139.859375 229.445312 139.898438 229.410156 139.941406 Z M 220.886719 206.535156 L 220.886719 206.558594 L 220.902344 206.542969 Z M 94.050781 149.683594 C 94.078125 149.585938 94.078125 149.597656 94.113281 149.5 Z M 206.144531 151.054688 C 205.859375 151.757812 205.613281 152.472656 205.445312 153.195312 C 205.445312 153.273438 205.464844 153.355469 205.480469 153.441406 C 205.511719 153.640625 205.597656 154.066406 205.761719 154.355469 C 205.828125 154.3125 205.878906 154.273438 205.945312 154.234375 C 206.492188 153.855469 207.023438 153.429688 207.570312 153.039062 C 208.015625 152.722656 208.449219 152.367188 208.878906 152.023438 L 207.601562 151.570312 Z M 48.945312 148.75 L 44.289062 146.363281 C 44.074219 146.675781 43.875 146.996094 43.710938 147.347656 C 43.34375 148.136719 43.164062 148.980469 42.992188 149.832031 C 43.207031 149.871094 43.417969 149.90625 43.628906 149.90625 C 44.847656 149.890625 46.050781 149.730469 47.234375 149.464844 C 47.835938 149.332031 48.40625 149.074219 48.945312 148.75 Z M 100.199219 173.257812 L 101.816406 174.53125 L 101.816406 163.59375 L 99.578125 163.59375 Z M 197.851562 123.574219 C 197.835938 123.582031 197.835938 123.589844 197.835938 123.597656 C 197.851562 123.609375 197.882812 123.628906 197.902344 123.648438 C 197.882812 123.625 197.867188 123.601562 197.851562 123.574219 Z M 211.765625 130.378906 L 201.367188 144.902344 L 212.113281 136.199219 Z M 214.085938 119.363281 C 214.105469 119.355469 214.121094 119.347656 214.136719 119.339844 C 214.121094 119.308594 214.105469 119.25 214.085938 119.21875 C 214.070312 119.210938 214.070312 119.207031 214.070312 119.199219 C 214.085938 119.253906 214.085938 119.308594 214.085938 119.363281 Z M 176.746094 139.25 C 176.734375 139.191406 176.726562 139.132812 176.71875 139.078125 C 175.21875 139.65625 173.714844 140.234375 172.152344 140.578125 C 171.226562 140.777344 170.304688 140.964844 169.382812 141.136719 L 169.164062 145.132812 L 175.894531 156.691406 C 176.183594 157.183594 176.015625 157.820312 175.519531 158.109375 C 175.023438 158.394531 174.390625 158.226562 174.101562 157.734375 L 168.957031 148.898438 L 167.824219 169.582031 L 173.660156 164.605469 C 173.664062 164.417969 173.71875 164.230469 173.828125 164.0625 L 177.4375 158.5625 C 177.347656 158.082031 177.28125 157.5625 177.230469 157.027344 C 177.054688 155.078125 177.101562 152.902344 177.113281 151.640625 C 177.125 150.40625 177.148438 149.164062 177.160156 147.921875 C 177.160156 147.90625 177.15625 147.890625 177.15625 147.871094 C 176.957031 144.992188 176.859375 142.121094 176.746094 139.25 Z M 175.789062 164.855469 L 181.6875 171.835938 L 181.875 163.546875 L 181.0625 165.109375 C 180.796875 165.617188 180.171875 165.8125 179.664062 165.546875 C 179.15625 165.285156 178.960938 164.65625 179.222656 164.152344 L 180.261719 162.160156 C 180.128906 162.113281 180.003906 162.0625 179.878906 162.007812 C 179.222656 161.726562 178.695312 161.363281 178.34375 160.960938 Z M 103.195312 174.367188 L 111.613281 166.542969 C 111.726562 165.613281 111.914062 164.695312 112.164062 163.800781 C 112.164062 163.730469 112.160156 163.664062 112.15625 163.59375 L 103.195312 163.59375 Z M 93.253906 167.792969 L 98.738281 172.113281 C 98.738281 172.113281 98.152344 162.945312 98.152344 162.941406 L 97.917969 159.320312 L 97.015625 159.320312 L 97.238281 164.601562 C 97.246094 164.722656 97.21875 164.835938 97.167969 164.933594 C 97.121094 165.035156 97.046875 165.125 96.949219 165.195312 Z M 183 126.789062 C 183.679688 129.433594 184.074219 132.035156 184.015625 134.867188 C 184.015625 134.992188 183.976562 135.109375 183.914062 135.210938 L 184.996094 135.210938 L 184.609375 112.773438 C 183.015625 112.257812 181.484375 111.582031 180.066406 110.675781 C 179.773438 110.492188 179.667969 110.121094 179.804688 109.8125 C 179.761719 109.515625 179.914062 109.207031 180.199219 109.078125 C 181.53125 108.464844 182.984375 107.929688 184.515625 107.480469 L 184.335938 97.273438 C 184.15625 97.277344 183.972656 97.28125 183.792969 97.28125 C 183.804688 99.804688 180.761719 100.289062 178.742188 99.445312 C 177.949219 99.113281 177.234375 98.5625 176.5625 97.941406 C 176.007812 97.703125 175.484375 97.433594 174.960938 97.144531 C 173.929688 97.066406 172.898438 96.949219 171.867188 96.765625 C 169.734375 96.65625 167.597656 96.417969 165.472656 96.125 C 165.800781 97.941406 166.019531 99.785156 166.171875 101.691406 C 166.433594 104.941406 166.335938 108.183594 166.363281 111.4375 C 166.777344 112.449219 167.246094 113.441406 167.707031 114.433594 C 168.144531 115.378906 168.5 116.355469 168.875 117.324219 C 169.765625 117.414062 170.65625 117.515625 171.546875 117.636719 C 171.925781 117.6875 172.191406 118.035156 172.140625 118.414062 C 172.140625 118.417969 172.140625 118.421875 172.140625 118.429688 C 172.226562 118.535156 172.285156 118.664062 172.296875 118.808594 C 172.332031 119.210938 172.363281 119.609375 172.394531 120.007812 C 172.546875 120 172.695312 120.003906 172.84375 120.019531 C 173.441406 120.078125 174.046875 120.308594 174.699219 120.71875 C 175.546875 121.25 176.503906 122.105469 177.710938 123.253906 C 177.867188 123.253906 178.023438 123.253906 178.183594 123.257812 C 179.371094 123.09375 180.769531 122.945312 181.425781 123.246094 C 182.527344 123.75 182.777344 125.253906 182.929688 126.300781 C 182.953125 126.460938 182.976562 126.625 183 126.789062 Z M 101.816406 159.320312 L 99.300781 159.320312 L 99.488281 162.214844 L 101.816406 162.214844 Z M 103.195312 157.191406 L 103.195312 157.957031 C 103.320312 157.929688 103.449219 157.929688 103.578125 157.972656 L 112.214844 160.9375 C 112.261719 160.316406 112.328125 159.699219 112.417969 159.09375 C 109.277344 159.304688 105.933594 158.742188 103.195312 157.191406 Z M 103.195312 162.214844 L 111.675781 162.214844 L 103.195312 159.304688 Z M 217.207031 129.9375 L 213.820312 129.9375 L 214.136719 135.304688 C 214.253906 135.355469 214.371094 135.433594 214.453125 135.53125 L 216.972656 138.167969 Z M 103.195312 132.457031 L 103.195312 132.6875 C 103.207031 132.644531 103.214844 132.601562 103.222656 132.558594 C 103.214844 132.523438 103.207031 132.492188 103.195312 132.457031 Z M 176.40625 137.742188 L 176.457031 137.722656 L 176.449219 137.722656 C 176.4375 137.726562 176.421875 137.734375 176.40625 137.742188 Z M 176.40625 137.742188 " fill-opacity="1" fill-rule="evenodd"/></g></svg>