<svg xmlns="http://www.w3.org/2000/svg" xmlns:xlink="http://www.w3.org/1999/xlink" width="384" zoomAndPan="magnify" viewBox="0 0 288 287.999989" height="384" preserveAspectRatio="xMidYMid meet" version="1.0"><defs><clipPath id="3ca0d5acb7"><path d="M 5.425781 5.425781 L 282.925781 5.425781 L 282.925781 282.925781 L 5.425781 282.925781 Z M 5.425781 5.425781 " clip-rule="nonzero"/></clipPath></defs><g clip-path="url(#3ca0d5acb7)"><path fill="#ffffff" d="M 144 5.425781 C 67.570312 5.425781 5.425781 67.570312 5.425781 144 C 5.425781 220.425781 67.570312 282.574219 144 282.574219 C 220.425781 282.574219 282.574219 220.425781 282.574219 144 C 282.574219 67.570312 220.425781 5.425781 144 5.425781 Z M 158.84375 166.921875 C 145.125 166.921875 134.039062 155.835938 134.039062 142.121094 C 134.039062 128.402344 145.125 117.316406 158.84375 117.316406 C 172.558594 117.316406 183.644531 128.402344 183.644531 142.121094 C 183.644531 155.835938 172.558594 166.921875 158.84375 166.921875 Z M 167.863281 77.34375 C 167.863281 63.625 178.949219 52.539062 192.664062 52.539062 C 206.382812 52.539062 217.46875 63.625 217.46875 77.34375 C 217.46875 91.058594 206.382812 102.144531 192.664062 102.144531 C 178.996094 102.144531 167.863281 91.058594 167.863281 77.34375 Z M 217.609375 156.257812 C 203.890625 156.257812 192.804688 145.171875 192.804688 131.457031 C 192.804688 117.742188 203.890625 106.65625 217.609375 106.65625 C 231.324219 106.65625 242.410156 117.742188 242.410156 131.457031 C 242.457031 145.125 231.324219 156.257812 217.609375 156.257812 Z M 217.609375 156.257812 " fill-opacity="1" fill-rule="nonzero"/></g></svg>