<svg xmlns="http://www.w3.org/2000/svg" xmlns:xlink="http://www.w3.org/1999/xlink" width="384" zoomAndPan="magnify" viewBox="0 0 288 287.999989" height="384" preserveAspectRatio="xMidYMid meet" version="1.0"><defs><clipPath id="4ba80c8caf"><path d="M 72 3.421875 L 216 3.421875 L 216 284.671875 L 72 284.671875 Z M 72 3.421875 " clip-rule="nonzero"/></clipPath><clipPath id="81b7904bfd"><path d="M 21.171875 122 L 124 122 L 124 284.671875 L 21.171875 284.671875 Z M 21.171875 122 " clip-rule="nonzero"/></clipPath><clipPath id="57185f5639"><path d="M 152 78 L 267 78 L 267 284.671875 L 152 284.671875 Z M 152 78 " clip-rule="nonzero"/></clipPath><clipPath id="6b5ad06d12"><path d="M 94 148 L 194 148 L 194 284.671875 L 94 284.671875 Z M 94 148 " clip-rule="nonzero"/></clipPath></defs><g clip-path="url(#4ba80c8caf)"><path fill="#ffffff" d="M 88.921875 284.597656 C 79.789062 284.597656 72.359375 277.171875 72.359375 268.042969 C 72.359375 262.550781 75.046875 257.605469 79.277344 254.582031 C 79.058594 253.449219 78.949219 252.292969 78.949219 251.132812 C 78.949219 241.585938 86.265625 233.726562 95.585938 232.859375 C 113.808594 208.5 117.859375 149.382812 118.746094 127.019531 L 118.390625 127.019531 C 110.667969 127.019531 104.382812 120.734375 104.382812 113.011719 C 104.382812 108.234375 106.78125 104.011719 110.4375 101.484375 C 110.277344 100.640625 110.203125 99.777344 110.203125 98.894531 C 110.203125 95.304688 111.5625 91.941406 113.894531 89.40625 C 108.796875 73.816406 105.628906 58.21875 105.628906 53.601562 C 105.628906 45.078125 113.992188 37.226562 126.828125 33.351562 C 128.027344 30.140625 130.421875 27.515625 133.46875 26.007812 L 133.46875 14.128906 C 133.46875 8.230469 138.257812 3.441406 144.15625 3.441406 C 150.050781 3.441406 154.847656 8.230469 154.847656 14.128906 L 154.847656 26.007812 C 157.894531 27.515625 160.289062 30.140625 161.484375 33.351562 C 174.320312 37.226562 182.6875 45.078125 182.6875 53.601562 C 182.6875 58.21875 179.507812 73.816406 174.417969 89.40625 C 176.742188 91.941406 178.109375 95.304688 178.109375 98.894531 C 178.109375 99.777344 178.035156 100.640625 177.878906 101.484375 C 181.527344 104.011719 183.933594 108.234375 183.933594 113.011719 C 183.933594 120.734375 177.648438 127.019531 169.917969 127.019531 L 169.5625 127.019531 C 170.457031 149.425781 174.53125 208.6875 192.808594 232.96875 C 201.671875 234.261719 208.5 241.910156 208.5 251.132812 C 208.5 252.113281 208.421875 253.085938 208.265625 254.046875 C 212.921875 256.988281 215.949219 262.179688 215.949219 268.042969 C 215.949219 277.171875 208.519531 284.597656 199.386719 284.597656 L 88.921875 284.597656 " fill-opacity="1" fill-rule="nonzero"/></g><path fill="#f0f0f0" d="M 200.476562 257.65625 C 201.679688 255.769531 202.378906 253.535156 202.378906 251.132812 C 202.378906 244.375 196.902344 238.894531 190.144531 238.894531 L 189.722656 238.894531 C 166.699219 212.015625 163.640625 138.003906 163.242188 120.898438 L 169.917969 120.898438 C 174.285156 120.898438 177.808594 117.367188 177.808594 113.011719 C 177.808594 108.652344 174.285156 105.121094 169.917969 105.121094 L 168.9375 105.121094 C 170.796875 103.671875 171.996094 101.429688 171.996094 98.894531 C 171.996094 95.636719 170.023438 92.84375 167.203125 91.636719 C 172.992188 75.121094 176.566406 57.699219 176.566406 53.601562 C 176.566406 47.300781 168.125 40.957031 156.1875 38.289062 C 156.199219 38.199219 156.207031 38.109375 156.207031 38.015625 C 156.207031 34.003906 152.949219 30.746094 148.933594 30.746094 L 148.726562 30.746094 L 148.726562 14.128906 C 148.726562 11.601562 146.679688 9.558594 144.15625 9.558594 C 141.628906 9.558594 139.585938 11.601562 139.585938 14.128906 L 139.585938 30.746094 L 139.375 30.746094 C 135.367188 30.746094 132.109375 34.003906 132.109375 38.015625 C 132.109375 38.109375 132.113281 38.199219 132.117188 38.289062 C 120.179688 40.957031 111.746094 47.300781 111.746094 53.601562 C 111.746094 57.699219 115.324219 75.121094 121.113281 91.636719 C 118.292969 92.84375 116.3125 95.636719 116.3125 98.894531 C 116.3125 101.429688 117.519531 103.671875 119.378906 105.121094 L 118.390625 105.121094 C 114.035156 105.121094 110.5 108.652344 110.5 113.011719 C 110.5 117.367188 114.035156 120.898438 118.390625 120.898438 L 125.066406 120.898438 C 124.671875 138.003906 121.613281 212.015625 98.589844 238.894531 L 97.304688 238.894531 C 90.546875 238.894531 85.070312 244.375 85.070312 251.132812 C 85.070312 253.582031 85.800781 255.863281 87.046875 257.78125 C 82.179688 258.664062 78.476562 262.914062 78.476562 268.042969 C 78.476562 273.800781 83.15625 278.472656 88.921875 278.472656 L 199.386719 278.472656 C 205.15625 278.472656 209.824219 273.800781 209.824219 268.042969 C 209.824219 262.640625 205.730469 258.207031 200.476562 257.65625 Z M 98.800781 259.761719 L 98.089844 259.761719 C 93.472656 259.761719 89.726562 256.019531 89.726562 251.40625 C 89.726562 246.792969 93.472656 243.054688 98.089844 243.054688 L 98.800781 243.054688 C 95.949219 244.742188 94.023438 247.847656 94.023438 251.40625 C 94.023438 254.964844 95.949219 258.070312 98.800781 259.761719 Z M 124.292969 240.332031 L 107.554688 240.332031 C 128.9375 205.96875 131.3125 122.457031 131.3125 122.457031 L 136.167969 122.457031 C 135.625 192.960938 124.292969 240.332031 124.292969 240.332031 Z M 128.609375 56.8125 L 134.515625 90.820312 L 128.542969 90.820312 L 117.8125 56.273438 C 117.8125 56.273438 112.414062 47.632812 140.480469 42.238281 C 140.480469 42.238281 127.523438 49.253906 128.609375 56.8125 " fill-opacity="1" fill-rule="nonzero"/><g clip-path="url(#81b7904bfd)"><path fill="#ffffff" d="M 34.664062 284.597656 C 27.230469 284.597656 21.183594 278.546875 21.183594 271.109375 C 21.183594 266.808594 23.214844 262.914062 26.441406 260.433594 C 26.320312 259.664062 26.253906 258.882812 26.253906 258.101562 C 26.253906 251.992188 30.03125 246.609375 35.476562 244.359375 C 36.703125 241.367188 38.796875 238.417969 41.59375 235.746094 C 40 233.703125 38.375 231.300781 37.003906 228.628906 C 31.449219 217.75 33.136719 205.140625 41.398438 195.714844 C 43.777344 193 46.578125 190.710938 49.4375 188.558594 C 47.90625 189.503906 46.042969 190.027344 43.941406 190.027344 C 40.847656 190.027344 38.058594 188.917969 37.53125 188.695312 C 36.296875 188.191406 32.769531 186.761719 31.652344 183.515625 C 30.042969 182.578125 28.898438 181.050781 28.324219 179.484375 C 25.578125 173.136719 25.230469 167.683594 27.277344 163.269531 C 29.085938 159.382812 32.128906 157.617188 33.765625 156.921875 L 45.085938 149.371094 C 45.707031 147.898438 46.707031 146.300781 48.0625 144.601562 L 48.617188 143.914062 L 55.476562 139.445312 L 49.558594 122.621094 L 68.890625 131.824219 C 72.339844 130.710938 75.921875 130.15625 79.570312 130.15625 C 90.488281 130.15625 100.863281 135.097656 110.394531 144.832031 C 126.328125 161.105469 124.980469 190.734375 114.601562 208.84375 C 111.445312 214.339844 107.5 218.652344 103.6875 222.832031 C 101.136719 225.617188 98.726562 228.25 96.59375 231.167969 C 102.335938 234.804688 106.59375 239.480469 108.59375 244.359375 C 114.039062 246.609375 117.8125 251.996094 117.8125 258.101562 C 117.8125 258.722656 117.769531 259.355469 117.695312 259.980469 C 121.246094 262.417969 123.546875 266.507812 123.546875 271.109375 C 123.546875 278.546875 117.492188 284.597656 110.058594 284.597656 Z M 52.964844 184.355469 C 52.414062 185.675781 51.617188 186.796875 50.601562 187.691406 C 51.238281 187.226562 51.871094 186.769531 52.5 186.3125 C 54.988281 184.5 57.402344 182.738281 59.496094 180.867188 C 59.382812 180.808594 59.28125 180.75 59.175781 180.695312 L 52.964844 184.355469 " fill-opacity="1" fill-rule="nonzero"/></g><path fill="#f0f0f0" d="M 110.894531 263.125 C 111.816406 261.671875 112.359375 259.953125 112.359375 258.101562 C 112.359375 253.347656 108.828125 249.421875 104.25 248.78125 C 103.257812 243.289062 97.554688 237.230469 89.355469 233.417969 C 90.078125 230.53125 91.640625 228.703125 92.089844 228.09375 C 97.703125 220.355469 104.992188 214.644531 109.867188 206.132812 C 119.09375 190.039062 120.59375 163.046875 106.5 148.648438 C 90.425781 132.226562 75.671875 134.890625 68.589844 137.71875 L 59.058594 133.179688 L 62.042969 141.679688 L 52.320312 148.003906 C 52.320312 148.003906 49.753906 151.210938 49.753906 152.8125 L 36.296875 161.792969 C 36.296875 161.792969 27.636719 164.359375 33.410156 177.5 C 33.410156 177.5 34.046875 179.585938 35.972656 178.863281 L 41.828125 175.03125 C 41.972656 174.511719 42.441406 173.976562 43.121094 173.648438 C 44.144531 173.152344 45.25 173.316406 45.589844 174.015625 C 45.921875 174.703125 45.363281 175.679688 44.339844 176.175781 C 43.957031 176.363281 43.5625 176.445312 43.199219 176.457031 L 37.417969 180.550781 C 37.417969 180.550781 34.921875 181.75 39.65625 183.671875 C 39.65625 183.671875 47.613281 187.042969 48.285156 180.785156 L 59.296875 174.296875 C 59.296875 174.296875 63.40625 177.496094 68.632812 178.503906 C 63.363281 187.261719 52.132812 191.742188 45.5 199.3125 C 38.824219 206.929688 37.214844 217.0625 41.855469 226.144531 C 43.753906 229.847656 46.5 233.445312 49.414062 236.414062 C 44.117188 240.027344 40.578125 244.570312 39.820312 248.78125 C 35.234375 249.421875 31.710938 253.339844 31.710938 258.101562 C 31.710938 259.984375 32.269531 261.742188 33.226562 263.21875 C 29.484375 263.898438 26.640625 267.167969 26.640625 271.109375 C 26.640625 275.546875 30.230469 279.136719 34.664062 279.136719 L 110.058594 279.136719 C 114.492188 279.136719 118.089844 275.546875 118.089844 271.109375 C 118.089844 266.957031 114.9375 263.542969 110.894531 263.125 Z M 56.644531 151.457031 C 56.644531 151.457031 53.566406 155.523438 54.050781 157.980469 L 39.785156 167.007812 C 39.785156 167.007812 34.328125 169.796875 35.273438 172.9375 C 35.273438 172.9375 31.589844 167.625 38.714844 163.957031 L 51.640625 155.945312 C 51.640625 155.945312 52.605469 151.605469 55.171875 149.609375 L 66.070312 143.765625 Z M 43.390625 264.863281 L 42.851562 264.863281 C 39.351562 264.863281 36.511719 262.027344 36.511719 258.527344 C 36.511719 255.027344 39.351562 252.191406 42.851562 252.191406 L 43.390625 252.191406 C 41.226562 253.472656 39.765625 255.828125 39.765625 258.527344 C 39.765625 261.226562 41.226562 263.585938 43.390625 264.863281 Z M 64.097656 237.125 C 56.726562 239.050781 52.558594 248.988281 52.558594 248.988281 L 45.824219 248.988281 C 49.996094 239.050781 56.402344 237.125 56.402344 237.125 C 29.792969 214.84375 52.234375 197.375 52.234375 197.375 C 61.988281 191.257812 72.359375 180.699219 72.359375 180.699219 C 69.867188 189.039062 56.09375 199.296875 56.09375 199.296875 C 34.628906 220.132812 64.097656 237.125 64.097656 237.125 " fill-opacity="1" fill-rule="nonzero"/><g clip-path="url(#57185f5639)"><path fill="#ffffff" d="M 166.5625 284.597656 C 158.996094 284.597656 152.84375 278.445312 152.84375 270.871094 C 152.84375 266.488281 154.910156 262.527344 158.1875 260.003906 C 158.066406 259.222656 158 258.429688 158 257.628906 C 158 249.878906 163.855469 243.46875 171.371094 242.597656 C 182.878906 226.792969 188.078125 190.082031 189.179688 160.4375 C 183.390625 159.726562 178.898438 154.78125 178.898438 148.792969 C 178.898438 144.980469 180.734375 141.574219 183.574219 139.429688 C 183.496094 138.875 183.449219 138.3125 183.449219 137.742188 C 183.449219 133.53125 185.683594 129.832031 189.027344 127.761719 C 187.359375 122.1875 184.433594 115.386719 179.285156 108.898438 L 172.140625 99.902344 L 187.828125 99.902344 C 189.734375 97.0625 192.671875 94.675781 196.320312 92.96875 C 196.183594 92.257812 196.121094 91.527344 196.121094 90.789062 C 196.121094 83.753906 202.269531 78.039062 209.824219 78.039062 C 217.390625 78.039062 223.535156 83.753906 223.535156 90.789062 C 223.535156 91.527344 223.472656 92.257812 223.335938 92.96875 C 226.988281 94.675781 229.917969 97.0625 231.824219 99.902344 L 247.507812 99.902344 L 240.367188 108.898438 C 235.222656 115.386719 232.292969 122.1875 230.625 127.761719 C 233.96875 129.832031 236.203125 133.53125 236.203125 137.742188 C 236.203125 138.3125 236.160156 138.875 236.082031 139.429688 C 238.921875 141.574219 240.757812 144.980469 240.757812 148.792969 C 240.757812 154.78125 236.269531 159.726562 230.480469 160.4375 C 231.585938 190.148438 236.804688 226.953125 248.363281 242.707031 C 255.515625 243.902344 260.976562 250.140625 260.976562 257.628906 C 260.976562 258.265625 260.933594 258.910156 260.855469 259.546875 C 264.484375 262.027344 266.808594 266.183594 266.808594 270.871094 C 266.808594 278.445312 260.652344 284.597656 253.089844 284.597656 L 166.5625 284.597656 " fill-opacity="1" fill-rule="nonzero"/></g><path fill="#f0f0f0" d="M 253.941406 262.738281 C 254.878906 261.261719 255.429688 259.511719 255.429688 257.628906 C 255.429688 252.335938 251.136719 248.046875 245.847656 248.046875 L 245.515625 248.046875 C 227.171875 226.628906 225.019531 167.019531 224.761719 154.976562 L 229.03125 154.976562 C 232.445312 154.976562 235.214844 152.210938 235.214844 148.792969 C 235.214844 145.382812 232.445312 142.621094 229.03125 142.621094 L 228.253906 142.621094 C 229.710938 141.492188 230.65625 139.726562 230.65625 137.742188 C 230.65625 134.324219 227.886719 131.566406 224.472656 131.566406 L 223.949219 131.566406 C 225.28125 125.097656 228.460938 114.980469 236.011719 105.453125 L 228.394531 105.453125 C 227.082031 101.023438 221.941406 97.441406 215.238281 96.171875 C 216.917969 94.847656 217.984375 92.929688 217.984375 90.789062 C 217.984375 86.816406 214.332031 83.589844 209.824219 83.589844 C 205.324219 83.589844 201.671875 86.816406 201.671875 90.789062 C 201.671875 92.929688 202.734375 94.847656 204.421875 96.171875 C 197.710938 97.441406 192.578125 101.023438 191.261719 105.453125 L 183.636719 105.453125 C 191.195312 114.980469 194.375 125.097656 195.710938 131.566406 L 195.183594 131.566406 C 191.773438 131.566406 189 134.324219 189 137.742188 C 189 139.726562 189.941406 141.492188 191.398438 142.621094 L 190.625 142.621094 C 187.214844 142.621094 184.445312 145.382812 184.445312 148.792969 C 184.445312 152.210938 187.214844 154.976562 190.625 154.976562 L 194.886719 154.976562 C 194.640625 167.019531 192.484375 226.628906 174.140625 248.046875 L 173.132812 248.046875 C 167.84375 248.046875 163.550781 252.335938 163.550781 257.628906 C 163.550781 259.550781 164.128906 261.332031 165.105469 262.84375 C 161.285156 263.527344 158.394531 266.863281 158.394531 270.871094 C 158.394531 275.382812 162.050781 279.042969 166.5625 279.042969 L 253.089844 279.042969 C 257.605469 279.042969 261.257812 275.382812 261.257812 270.871094 C 261.257812 266.648438 258.050781 263.175781 253.941406 262.738281 Z M 192.410156 108.886719 L 199.746094 108.886719 C 201.488281 120.886719 199.746094 130.175781 199.746094 130.175781 C 198.765625 121.613281 192.410156 108.886719 192.410156 108.886719 Z M 174.816406 263.800781 L 174.265625 263.800781 C 170.707031 263.800781 167.816406 260.914062 167.816406 257.351562 C 167.816406 253.785156 170.707031 250.902344 174.265625 250.902344 L 174.816406 250.902344 C 172.617188 252.214844 171.132812 254.605469 171.132812 257.351562 C 171.132812 260.097656 172.617188 262.496094 174.816406 263.800781 Z M 189.839844 248.046875 L 180.910156 248.046875 C 197.414062 225.207031 198.765625 155.132812 198.765625 155.132812 L 201.707031 155.132812 C 203.339844 216.722656 189.839844 248.046875 189.839844 248.046875 " fill-opacity="1" fill-rule="nonzero"/><g clip-path="url(#6b5ad06d12)"><path fill="#ffffff" d="M 107.453125 284.597656 C 100.21875 284.597656 94.324219 278.710938 94.324219 271.476562 C 94.324219 267.277344 96.300781 263.492188 99.4375 261.074219 C 99.320312 260.328125 99.261719 259.566406 99.261719 258.796875 C 99.261719 251.320312 104.960938 245.148438 112.246094 244.398438 C 118.730469 236.4375 121.902344 226.527344 123.445312 218.296875 C 119.839844 216.429688 117.382812 212.660156 117.382812 208.332031 C 117.382812 204.675781 119.132812 201.421875 121.855469 199.367188 C 121.777344 198.835938 121.738281 198.304688 121.738281 197.753906 C 121.738281 195.84375 122.222656 194.011719 123.101562 192.402344 C 119.21875 187.613281 117.0625 181.644531 117.0625 175.347656 C 117.0625 160.40625 129.21875 148.253906 144.15625 148.253906 C 159.09375 148.253906 171.25 160.40625 171.25 175.347656 C 171.25 181.644531 169.09375 187.613281 165.210938 192.402344 C 166.089844 194.011719 166.582031 195.84375 166.582031 197.753906 C 166.582031 198.304688 166.539062 198.835938 166.460938 199.367188 C 169.183594 201.421875 170.9375 204.675781 170.9375 208.332031 C 170.9375 212.660156 168.46875 216.429688 164.867188 218.296875 C 166.417969 226.566406 169.609375 236.511719 176.140625 244.496094 C 183.078125 245.558594 188.40625 251.570312 188.40625 258.796875 C 188.40625 259.417969 188.367188 260.027344 188.292969 260.632812 C 191.761719 263.003906 193.988281 266.992188 193.988281 271.476562 C 193.988281 278.710938 188.097656 284.597656 180.859375 284.597656 L 107.453125 284.597656 " fill-opacity="1" fill-rule="nonzero"/></g><path fill="#f0f0f0" d="M 181.671875 263.699219 C 182.574219 262.28125 183.097656 260.605469 183.097656 258.796875 C 183.097656 253.738281 178.996094 249.636719 173.929688 249.636719 L 173.5625 249.636719 C 164.144531 239.25 160.3125 225.550781 158.859375 214.238281 L 159.722656 214.238281 C 162.980469 214.238281 165.628906 211.59375 165.628906 208.332031 C 165.628906 205.0625 162.980469 202.421875 159.722656 202.421875 L 158.976562 202.421875 C 160.375 201.34375 161.269531 199.652344 161.269531 197.753906 C 161.269531 195.34375 159.828125 193.277344 157.761719 192.359375 C 162.742188 188.367188 165.9375 182.226562 165.9375 175.347656 C 165.9375 163.316406 156.1875 153.5625 144.15625 153.5625 C 132.125 153.5625 122.371094 163.316406 122.371094 175.347656 C 122.371094 182.226562 125.570312 188.367188 130.550781 192.359375 C 128.488281 193.277344 127.042969 195.34375 127.042969 197.753906 C 127.042969 199.652344 127.949219 201.34375 129.332031 202.421875 L 128.601562 202.421875 C 125.335938 202.421875 122.683594 205.0625 122.683594 208.332031 C 122.683594 211.59375 125.335938 214.238281 128.601562 214.238281 L 129.453125 214.238281 C 128 225.550781 124.167969 239.25 114.753906 249.636719 L 113.730469 249.636719 C 108.671875 249.636719 104.566406 253.738281 104.566406 258.796875 C 104.566406 260.644531 105.113281 262.347656 106.046875 263.789062 C 102.402344 264.445312 99.632812 267.628906 99.632812 271.476562 C 99.632812 275.789062 103.132812 279.292969 107.453125 279.292969 L 180.859375 279.292969 C 185.179688 279.292969 188.679688 275.789062 188.679688 271.476562 C 188.679688 267.425781 185.605469 264.109375 181.671875 263.699219 " fill-opacity="1" fill-rule="nonzero"/><path fill="#ffffff" d="M 159.914062 165.21875 C 156.675781 159.765625 150.730469 156.113281 143.921875 156.113281 C 133.644531 156.113281 125.324219 164.4375 125.324219 174.703125 C 125.324219 179.8125 127.382812 184.441406 130.714844 187.804688 C 129.066406 185.023438 128.113281 181.78125 128.113281 178.3125 C 128.113281 172.789062 130.542969 167.835938 134.367188 164.429688 C 135.375 167.027344 138.976562 168.949219 143.285156 168.949219 C 148.363281 168.949219 152.484375 166.269531 152.484375 162.960938 C 152.484375 162.039062 152.152344 161.160156 151.574219 160.382812 C 154.777344 161.25 157.644531 162.929688 159.914062 165.21875 " fill-opacity="1" fill-rule="nonzero"/><path fill="#ffffff" d="M 122.359375 249.636719 L 128.21875 249.636719 C 128.21875 249.636719 132.976562 235.285156 134.847656 215.304688 L 133.140625 215.304688 C 133.140625 215.304688 130.164062 236.523438 122.359375 249.636719 " fill-opacity="1" fill-rule="nonzero"/><path fill="#ffffff" d="M 115.019531 252.753906 L 114.488281 252.753906 C 111.074219 252.753906 108.316406 255.515625 108.316406 258.921875 C 108.316406 262.332031 111.074219 265.089844 114.488281 265.089844 L 115.019531 265.089844 C 112.90625 263.847656 111.488281 261.554688 111.488281 258.921875 C 111.488281 256.296875 112.90625 254.011719 115.019531 252.753906 " fill-opacity="1" fill-rule="nonzero"/></svg>