<svg xmlns="http://www.w3.org/2000/svg" xmlns:xlink="http://www.w3.org/1999/xlink" width="384" zoomAndPan="magnify" viewBox="0 0 288 287.999989" height="384" preserveAspectRatio="xMidYMid meet" version="1.0"><path fill="#ffffff" d="M 262.882812 69.21875 C 262.554688 68.339844 261.238281 68.175781 260.472656 68.175781 C 259.488281 68.175781 258.503906 68.394531 257.519531 68.394531 C 256.585938 68.394531 255.710938 68.175781 254.78125 68.121094 C 253.304688 67.957031 251.9375 67.847656 250.511719 67.574219 C 251.496094 67.300781 252.429688 66.917969 253.46875 66.644531 C 255.109375 66.207031 257.082031 66.480469 258.394531 65.277344 C 258.886719 64.839844 259.269531 64.179688 258.777344 63.578125 C 258.230469 62.976562 257.136719 63.085938 256.421875 63.140625 C 254.78125 63.304688 253.085938 63.578125 251.441406 63.742188 C 250.074219 63.90625 248.761719 64.070312 247.394531 63.90625 C 247.996094 63.632812 248.597656 63.359375 249.253906 63.085938 C 250.019531 62.757812 251.277344 61.71875 250.292969 60.898438 C 249.636719 60.351562 248.324219 60.789062 247.613281 60.953125 C 246.738281 61.171875 245.859375 61.5 244.929688 61.609375 C 244.054688 61.71875 243.234375 61.773438 242.359375 61.9375 C 241.589844 61.71875 240.878906 61.28125 240.167969 60.84375 C 239.238281 60.242188 238.253906 59.695312 237.433594 59.035156 C 235.84375 57.777344 234.203125 56.847656 232.179688 56.246094 C 231.574219 56.082031 230.972656 55.917969 230.371094 55.808594 C 230.207031 55.808594 230.042969 55.753906 229.878906 55.808594 C 228.511719 55.042969 226.59375 54.441406 225.226562 53.78125 C 223.53125 52.960938 221.558594 52.140625 219.808594 51.484375 C 216.03125 50.117188 211.984375 48.855469 208.042969 47.925781 C 206.894531 47.652344 205.6875 47.214844 204.539062 46.941406 C 203.773438 45.246094 202.296875 44.371094 201.089844 42.890625 C 199.503906 40.921875 198.246094 40.375 195.5625 40.484375 C 193.265625 40.59375 191.238281 39.882812 188.996094 40.429688 C 188.121094 40.648438 186.917969 40.921875 185.984375 40.703125 C 184.78125 40.429688 183.960938 39.445312 182.703125 39.167969 C 180.894531 38.730469 179.199219 39.113281 177.613281 39.882812 C 176.40625 38.730469 174.328125 37.636719 173.070312 36.925781 C 171.261719 35.886719 169.238281 35.121094 167.324219 34.300781 C 163.65625 32.65625 159.277344 30.796875 155.171875 30.632812 C 153.75 30.578125 152.21875 31.015625 150.847656 31.671875 C 149.699219 30.851562 148.605469 29.976562 147.019531 30.359375 C 146.03125 30.632812 144.5 31.726562 143.625 32.929688 C 143.296875 32.820312 142.96875 32.765625 142.695312 32.65625 C 141.597656 32.21875 140.394531 31.726562 139.246094 31.34375 C 139.082031 28.988281 138.863281 26.582031 137.769531 24.449219 C 136.5625 22.09375 134.976562 19.851562 133.445312 17.714844 C 131.636719 15.308594 129.339844 14.15625 127.152344 12.242188 C 125.125 10.4375 123.320312 8.628906 120.308594 8.683594 C 118.722656 8.738281 116.859375 9.453125 115.382812 10.492188 C 110.402344 7.917969 106.515625 11.148438 104.546875 16.238281 C 103.507812 18.917969 102.46875 21.273438 101.042969 23.734375 C 99.675781 26.035156 98.746094 28.824219 100.441406 31.234375 C 101.863281 33.257812 104.109375 34.023438 106.351562 34.078125 C 106.460938 34.574219 106.570312 35.066406 106.734375 35.503906 C 107.339844 37.199219 107.558594 38.730469 108.925781 40.046875 C 109.417969 40.539062 110.019531 40.921875 110.675781 41.195312 C 110.949219 42.617188 111.167969 44.039062 111.332031 45.519531 C 111.550781 47.324219 112.042969 49.351562 114.289062 48.964844 C 114.835938 48.855469 115.382812 48.691406 115.929688 48.472656 C 115.820312 49.238281 115.492188 49.953125 115.820312 50.71875 C 116.039062 51.15625 116.695312 51.210938 117.355469 51.15625 C 117.300781 52.085938 117.574219 53.179688 118.449219 53.507812 C 119.050781 53.726562 119.925781 53.34375 120.582031 52.851562 C 121.238281 54.605469 122.554688 56.847656 124.632812 56.136719 C 126.710938 55.425781 127.152344 52.304688 128.792969 50.9375 C 129.011719 50.71875 129.285156 50.554688 129.503906 50.335938 C 129.996094 50.554688 130.433594 50.882812 130.871094 51.15625 C 129.449219 52.632812 127.863281 55.316406 127.316406 56.191406 C 125.78125 58.597656 125.289062 61.773438 123.265625 63.90625 C 121.347656 65.933594 118.886719 67.191406 117.082031 69.382812 C 115.382812 71.460938 113.578125 74.253906 112.539062 76.714844 C 111.878906 78.246094 111.277344 79.78125 110.730469 81.3125 C 110.402344 82.1875 110.238281 83.5 109.964844 84.597656 C 105.3125 81.640625 100.496094 78.957031 95.460938 76.660156 C 89.113281 73.8125 82.4375 70.914062 75.59375 69.65625 C 69.410156 68.503906 63.554688 69.492188 59.394531 74.527344 C 55.34375 79.453125 53.265625 86.128906 51.730469 92.257812 C 50.199219 98.167969 49.488281 104.191406 49.105469 110.265625 C 48.667969 111.195312 48.175781 112.070312 47.847656 112.945312 C 46.421875 116.667969 44.34375 120.28125 43.140625 124.054688 C 42.207031 127.175781 42.59375 130.078125 42.59375 132.976562 C 42.429688 133.25 42.320312 133.46875 42.152344 133.742188 C 40.785156 135.988281 36.734375 138.777344 39.691406 141.460938 C 41.222656 142.882812 43.46875 143.210938 45.546875 143.8125 C 45.546875 145.730469 45.109375 148.027344 44.5625 149.945312 C 43.359375 150.109375 42.207031 150.492188 41.277344 151.367188 C 39.253906 153.335938 39.199219 156.675781 39.144531 159.304688 C 39.089844 162.039062 39.308594 164.832031 38.542969 167.457031 C 37.832031 169.976562 36.132812 171.945312 34.546875 174.027344 C 31.972656 177.308594 28.800781 184.097656 35.3125 185.300781 C 40.894531 186.394531 44.671875 180.046875 47.792969 176.488281 C 50.964844 172.820312 53.867188 169.648438 55.945312 165.433594 C 56.875 164.832031 57.753906 164.230469 58.683594 163.625 C 62.296875 161.328125 67.277344 159.851562 70.121094 156.457031 C 74.0625 151.804688 68.152344 149.453125 65.359375 146.496094 C 66.890625 145.894531 68.808594 145.511719 69.136719 143.8125 C 69.355469 142.71875 68.480469 141.460938 68.535156 140.257812 C 68.589844 138.996094 69.136719 137.683594 69.300781 136.480469 C 69.683594 133.960938 69.628906 131.390625 69.957031 128.871094 C 70.339844 126.246094 71.160156 123.945312 71.871094 121.375 C 72.476562 119.242188 73.625 116.394531 73.023438 114.09375 C 73.898438 112.617188 74.71875 111.03125 75.539062 109.664062 C 76.742188 107.691406 77.839844 105.777344 78.714844 103.75 C 79.316406 104.957031 80.191406 106.105469 81.285156 107.144531 C 83.203125 108.949219 85.882812 110.320312 88.019531 111.6875 C 90.316406 113.164062 92.507812 114.753906 94.640625 116.394531 C 96.609375 117.925781 98.199219 119.679688 99.730469 121.539062 C 100.332031 122.25 102.742188 124.167969 104.164062 125.535156 C 103.671875 126.683594 103.234375 127.941406 103.070312 128.378906 C 102.195312 130.296875 100.988281 131.773438 99.839844 133.523438 C 98.691406 135.277344 97.980469 137.136719 96.773438 138.832031 C 95.570312 140.53125 94.3125 142.117188 93.21875 143.867188 C 90.917969 147.480469 89.332031 151.476562 87.855469 155.417969 C 86.375 159.304688 84.40625 163.023438 82.65625 166.855469 C 80.847656 170.796875 79.699219 174.738281 79.261719 179.0625 C 76.195312 183.328125 76.46875 189.789062 79.699219 193.949219 C 81.394531 196.136719 83.148438 198.050781 84.460938 200.460938 C 86.046875 203.414062 87.691406 206.316406 89.550781 209.109375 C 91.136719 211.460938 92.726562 213.871094 94.148438 216.386719 C 95.734375 219.125 96.335938 221.914062 97.324219 224.816406 C 99.347656 230.671875 104.4375 234.777344 107.339844 240.140625 C 108.542969 242.4375 109.089844 245.722656 111.714844 246.871094 C 113.46875 247.636719 115.546875 246.980469 117.464844 246.324219 C 118.503906 248.128906 119.652344 249.9375 121.019531 251.46875 C 120.089844 252.671875 119.707031 254.097656 120.800781 255.574219 C 122.445312 257.761719 125.179688 258.96875 126.820312 261.210938 C 128.246094 263.125 129.175781 265.261719 130.707031 267.066406 C 132.296875 268.875 134.320312 270.351562 135.742188 272.320312 C 138.042969 275.441406 139.957031 282.71875 145.375 280.203125 C 150.792969 277.683594 146.578125 270.515625 145.265625 266.792969 C 143.679688 262.359375 143.023438 257.707031 141.597656 253.273438 C 141.707031 252.5625 141.871094 251.851562 141.980469 251.195312 C 142.75 246.214844 142.585938 241.34375 141.816406 236.363281 C 140.832031 230.398438 135.304688 231.984375 131.035156 233.570312 C 131.417969 231.984375 131.910156 230.398438 132.1875 228.753906 C 132.460938 226.894531 131.144531 225.253906 129.886719 223.832031 C 127.371094 220.984375 124.46875 218.628906 122.28125 215.511719 C 117.519531 208.722656 111.113281 202.101562 109.582031 193.78125 C 108.871094 190.117188 107.007812 186.941406 105.914062 183.4375 C 107.613281 181.359375 108.324219 178.785156 109.253906 176.050781 C 110.402344 172.601562 112.921875 170.304688 115.382812 167.785156 C 117.792969 165.378906 119.761719 162.203125 122.003906 159.523438 C 124.195312 156.894531 126.328125 154.433594 128.628906 151.96875 C 130.488281 150 131.855469 147.535156 133.28125 145.183594 C 137.167969 142.9375 140.339844 139.875 142.96875 135.878906 C 144.554688 133.414062 147.621094 131.28125 148.660156 128.597656 C 149.371094 126.792969 149.152344 124.441406 148.550781 122.414062 C 151.230469 120.5 152.65625 117.871094 153.914062 114.644531 C 156.375 108.074219 158.128906 101.835938 163.4375 96.800781 C 165.953125 94.449219 167.378906 91.65625 169.128906 88.753906 C 170.496094 86.457031 172.46875 84.101562 173.453125 81.53125 C 174.382812 81.75 175.257812 82.023438 176.078125 82.515625 C 177.230469 83.171875 178.105469 84.214844 179.199219 84.925781 C 180.457031 85.746094 181.824219 85.855469 183.25 85.855469 C 183.742188 85.855469 184.179688 85.746094 184.617188 85.636719 C 185.328125 86.074219 186.09375 86.457031 187.082031 86.785156 C 190.472656 87.878906 193.703125 89.359375 196.933594 90.5625 C 197.863281 90.890625 202.132812 92.75 204.648438 94.007812 C 205.359375 95.597656 206.617188 96.582031 207.660156 98.003906 C 208.152344 98.660156 208.589844 99.429688 209.027344 100.140625 C 209.464844 100.796875 210.011719 101.34375 210.394531 102 C 211.160156 103.367188 210.613281 105.722656 211.816406 106.816406 C 213.40625 108.183594 214.390625 104.683594 214.390625 103.695312 C 214.335938 102.21875 213.789062 100.796875 213.515625 99.375 C 213.734375 99.042969 213.953125 98.714844 214.171875 98.386719 C 214.390625 98.113281 214.773438 97.730469 215.15625 97.347656 C 216.796875 96.910156 218.386719 96.527344 220.136719 96.582031 C 222.109375 96.636719 224.132812 96.417969 226.101562 96.691406 C 227.253906 96.855469 230.917969 97.730469 231.191406 95.816406 C 231.464844 93.84375 227.527344 94.339844 226.484375 94.339844 C 224.679688 94.285156 222.984375 93.515625 221.175781 93.078125 C 221.121094 92.695312 221.121094 92.3125 221.066406 91.929688 C 222.492188 91.4375 223.96875 91.21875 225.335938 90.671875 C 226.046875 90.398438 226.648438 89.90625 227.308594 89.578125 C 228.074219 89.136719 228.894531 88.917969 229.660156 88.589844 C 230.425781 88.316406 231.464844 87.878906 231.792969 87.058594 C 232.125 86.292969 231.519531 85.800781 230.808594 85.636719 C 228.949219 85.308594 227.417969 86.839844 225.773438 87.332031 C 224.023438 87.878906 222.273438 88.042969 220.574219 88.808594 C 220.464844 88.535156 220.410156 88.207031 220.246094 87.988281 C 221.121094 86.949219 222 86.074219 223.148438 85.308594 C 224.351562 84.488281 225.882812 83.9375 226.980469 83.007812 C 227.417969 82.625 228.074219 81.914062 227.636719 81.3125 C 227.144531 80.710938 226.101562 81.09375 225.554688 81.367188 C 224.84375 81.695312 224.296875 82.242188 223.640625 82.625 C 223.039062 83.007812 222.382812 83.226562 221.777344 83.554688 C 220.574219 84.214844 219.589844 85.144531 218.496094 85.964844 C 218.277344 85.691406 217.949219 85.417969 217.621094 85.199219 L 217.675781 85.144531 C 218.058594 84.433594 218.386719 83.664062 218.769531 82.953125 C 219.152344 82.132812 219.808594 81.585938 220.355469 80.929688 C 220.847656 80.382812 221.558594 79.398438 221.121094 78.628906 C 220.683594 77.863281 219.808594 78.136719 219.261719 78.574219 C 218.550781 79.121094 218.113281 80 217.566406 80.65625 C 217.019531 81.3125 216.523438 81.96875 216.03125 82.679688 C 215.59375 83.390625 215.15625 84.15625 214.390625 84.652344 C 213.625 85.144531 212.695312 85.363281 211.875 85.636719 C 210.394531 86.074219 208.972656 86.347656 207.660156 87.003906 C 207.277344 86.839844 206.894531 86.675781 206.5625 86.457031 C 205.851562 85.964844 205.195312 85.363281 204.539062 84.816406 C 203.117188 83.71875 201.636719 82.734375 200.214844 81.640625 C 198.847656 80.601562 197.371094 79.507812 196.054688 78.300781 C 195.453125 77.753906 194.359375 76.222656 193.484375 75.511719 C 193.8125 74.195312 193.976562 72.828125 193.210938 71.734375 C 192.71875 71.023438 191.730469 70.640625 191.183594 69.929688 C 190.582031 69.160156 190.308594 68.230469 189.488281 67.574219 C 187.902344 66.425781 185.710938 66.917969 183.796875 66.808594 C 181.824219 66.699219 179.582031 65.222656 178.050781 64.070312 C 177.285156 63.46875 176.460938 62.8125 175.859375 62.046875 C 176.460938 61.828125 177.066406 61.664062 177.558594 61.554688 C 179.199219 61.171875 180.402344 61.390625 182.046875 61.390625 C 184.5625 61.335938 187.355469 60.898438 189.871094 61.171875 C 190.199219 61.554688 190.582031 61.882812 191.128906 62.15625 C 192.445312 62.757812 194.03125 63.195312 195.453125 63.523438 C 199.175781 64.402344 201.035156 63.90625 204.265625 61.9375 L 204.320312 61.773438 C 205.632812 61.992188 206.949219 62.15625 208.371094 62.429688 C 211.984375 63.085938 215.757812 62.648438 219.371094 63.25 C 222.328125 63.796875 226.15625 64.511719 228.894531 65.878906 C 228.839844 67.574219 229.058594 69.21875 229.933594 70.804688 C 230.808594 72.445312 231.628906 74.199219 232.726562 75.730469 C 233.21875 76.386719 233.765625 76.933594 234.203125 77.644531 C 234.640625 78.355469 234.859375 79.175781 235.351562 79.890625 C 236.390625 81.476562 239.183594 81.257812 239.347656 79.121094 C 239.402344 78.191406 238.800781 77.480469 238.308594 76.824219 C 237.925781 76.277344 237.707031 75.730469 237.597656 75.128906 C 237.707031 75.074219 237.816406 75.019531 237.925781 75.019531 C 240.441406 74.085938 242.46875 74.308594 244.875 75.402344 C 247.339844 76.550781 249.746094 77.371094 252.484375 77.535156 C 254.78125 77.644531 258.722656 77.863281 260.417969 76.003906 C 262.390625 73.8125 256.367188 74.363281 255.601562 74.363281 C 254.453125 74.308594 253.140625 73.703125 252.15625 73.15625 C 251.828125 72.992188 251.550781 72.828125 251.277344 72.71875 C 252.757812 72.828125 254.234375 72.773438 255.765625 72.609375 C 256.753906 72.5 257.683594 72.28125 258.613281 72.007812 C 259.542969 71.789062 260.472656 71.625 261.402344 71.296875 C 262.28125 70.585938 263.210938 70.09375 262.882812 69.21875 Z M 262.882812 69.21875 " fill-opacity="1" fill-rule="nonzero"/></svg>