<svg xmlns="http://www.w3.org/2000/svg" xmlns:xlink="http://www.w3.org/1999/xlink" width="384" zoomAndPan="magnify" viewBox="0 0 288 287.999989" height="384" preserveAspectRatio="xMidYMid meet" version="1.0"><defs><clipPath id="f7c443722a"><path d="M 178 95 L 234 95 L 234 259.203125 L 178 259.203125 Z M 178 95 " clip-rule="nonzero"/></clipPath><clipPath id="b33ac5ed9f"><path d="M 237 82 L 278.265625 82 L 278.265625 115 L 237 115 Z M 237 82 " clip-rule="nonzero"/></clipPath><clipPath id="dfa8c4a7d9"><path d="M 54 95 L 110 95 L 110 259.203125 L 54 259.203125 Z M 54 95 " clip-rule="nonzero"/></clipPath><clipPath id="445d8b6a5b"><path d="M 9.765625 82 L 51 82 L 51 115 L 9.765625 115 Z M 9.765625 82 " clip-rule="nonzero"/></clipPath><clipPath id="6be7484809"><path d="M 168 48.453125 L 234 48.453125 L 234 92 L 168 92 Z M 168 48.453125 " clip-rule="nonzero"/></clipPath><clipPath id="861dbd8698"><path d="M 54 48.453125 L 120 48.453125 L 120 92 L 54 92 Z M 54 48.453125 " clip-rule="nonzero"/></clipPath></defs><g clip-path="url(#f7c443722a)"><path fill="#ffffff" d="M 178.425781 250.003906 L 233.527344 259.179688 L 233.527344 95.523438 L 178.425781 95.523438 Z M 178.425781 250.003906 " fill-opacity="1" fill-rule="nonzero"/></g><g clip-path="url(#b33ac5ed9f)"><path fill="#ffffff" d="M 237.925781 82.195312 L 237.925781 92.027344 L 278.152344 114.359375 L 278.152344 104.527344 Z M 237.925781 82.195312 " fill-opacity="1" fill-rule="nonzero"/></g><path fill="#ffffff" d="M 268.222656 134.355469 C 268.222656 127.828125 268.226562 122.386719 268.226562 118.578125 L 268.230469 114.152344 C 268.230469 114.058594 268.230469 113.972656 268.230469 113.882812 C 258.253906 108.34375 244.210938 100.546875 237.925781 97.058594 L 237.925781 258.863281 L 268.234375 250.207031 C 268.230469 242.894531 268.226562 212.5625 268.222656 182.234375 C 268.222656 164.824219 268.222656 147.414062 268.222656 134.355469 Z M 268.222656 134.355469 " fill-opacity="1" fill-rule="nonzero"/><path fill="#ffffff" d="M 19.769531 114.152344 L 19.773438 118.578125 C 19.773438 122.386719 19.773438 127.828125 19.773438 134.355469 C 19.777344 147.414062 19.773438 164.824219 19.773438 182.234375 C 19.769531 212.5625 19.765625 242.894531 19.765625 250.207031 L 50.074219 258.863281 L 50.074219 97.058594 C 43.785156 100.546875 29.742188 108.34375 19.769531 113.882812 C 19.769531 113.972656 19.769531 114.058594 19.769531 114.152344 Z M 19.769531 114.152344 " fill-opacity="1" fill-rule="nonzero"/><g clip-path="url(#dfa8c4a7d9)"><path fill="#ffffff" d="M 54.472656 259.179688 L 109.570312 250.003906 L 109.570312 95.523438 L 54.472656 95.523438 Z M 54.472656 259.179688 " fill-opacity="1" fill-rule="nonzero"/></g><g clip-path="url(#445d8b6a5b)"><path fill="#ffffff" d="M 9.847656 114.359375 L 50.074219 92.027344 L 50.074219 82.195312 L 9.847656 104.527344 Z M 9.847656 114.359375 " fill-opacity="1" fill-rule="nonzero"/></g><g clip-path="url(#6be7484809)"><path fill="#ffffff" d="M 198.257812 63.59375 C 198.257812 59.34375 201.722656 55.886719 205.976562 55.886719 L 208.667969 55.886719 C 209.5 57.675781 211.308594 58.917969 213.410156 58.917969 L 223.335938 58.917969 C 226.222656 58.917969 228.570312 56.570312 228.570312 53.6875 C 228.570312 50.800781 226.222656 48.453125 223.335938 48.453125 L 213.410156 48.453125 C 211.308594 48.453125 209.5 49.699219 208.667969 51.488281 L 205.976562 51.488281 C 199.296875 51.488281 193.859375 56.917969 193.859375 63.59375 L 193.859375 80.65625 L 168.511719 80.65625 L 168.511719 91.121094 L 233.527344 91.121094 L 233.527344 80.65625 L 198.257812 80.65625 Z M 198.257812 63.59375 " fill-opacity="1" fill-rule="nonzero"/></g><g clip-path="url(#861dbd8698)"><path fill="#ffffff" d="M 94.136719 63.59375 C 94.136719 56.917969 88.703125 51.488281 82.023438 51.488281 L 79.332031 51.488281 C 78.5 49.699219 76.6875 48.453125 74.589844 48.453125 L 64.664062 48.453125 C 61.777344 48.453125 59.429688 50.800781 59.429688 53.6875 C 59.429688 56.570312 61.777344 58.917969 64.664062 58.917969 L 74.589844 58.917969 C 76.6875 58.917969 78.5 57.675781 79.332031 55.886719 L 82.023438 55.886719 C 86.277344 55.886719 89.738281 59.34375 89.738281 63.59375 L 89.738281 80.65625 L 54.472656 80.65625 L 54.472656 91.125 L 119.488281 91.125 L 119.488281 80.660156 L 94.136719 80.660156 Z M 94.136719 63.59375 " fill-opacity="1" fill-rule="nonzero"/></g></svg>