<svg xmlns="http://www.w3.org/2000/svg" xmlns:xlink="http://www.w3.org/1999/xlink" width="384" zoomAndPan="magnify" viewBox="0 0 288 287.999989" height="384" preserveAspectRatio="xMidYMid meet" version="1.0"><defs><clipPath id="61b18723cb"><path d="M 119 7.238281 L 169 7.238281 L 169 54 L 119 54 Z M 119 7.238281 " clip-rule="nonzero"/></clipPath><clipPath id="669ebfdd3a"><path d="M 36.375 275 L 251.550781 275 L 251.550781 280.757812 L 36.375 280.757812 Z M 36.375 275 " clip-rule="nonzero"/></clipPath></defs><path fill="#ffffff" d="M 155.496094 100.113281 L 132.507812 100.113281 C 122.824219 100.113281 118.574219 91.679688 115.945312 84.332031 C 115.945312 84.316406 115.945312 84.316406 115.925781 84.300781 L 114.835938 81.128906 L 173.128906 81.128906 L 172.039062 84.300781 C 172.039062 84.316406 172.039062 84.316406 172.023438 84.332031 C 169.429688 91.679688 165.179688 100.113281 155.496094 100.113281 " fill-opacity="1" fill-rule="evenodd"/><path fill="#ffffff" d="M 174.824219 75.558594 L 113.175781 75.558594 C 108.664062 75.558594 104.992188 71.8125 104.992188 67.195312 C 104.992188 62.6875 108.664062 59.011719 113.175781 59.011719 L 174.824219 59.011719 C 179.335938 59.011719 183.011719 62.6875 183.011719 67.195312 C 183.011719 71.8125 179.335938 75.558594 174.824219 75.558594 " fill-opacity="1" fill-rule="evenodd"/><path fill="#ffffff" d="M 135.292969 123.097656 C 133.9375 123.097656 132.730469 122.105469 132.542969 120.714844 C 131.097656 110.753906 129.738281 101.746094 129.074219 97.777344 C 128.8125 96.261719 129.84375 94.816406 131.375 94.574219 C 133.796875 94.292969 155.332031 94.273438 156.921875 94.609375 C 158.4375 94.921875 159.394531 96.402344 159.082031 97.902344 C 158.246094 101.941406 156.851562 111.097656 155.632812 120.679688 C 155.460938 122.074219 154.277344 123.097656 152.882812 123.097656 C 129.820312 123.097656 157.230469 123.097656 135.292969 123.097656 " fill-opacity="1" fill-rule="evenodd"/><path fill="#ffffff" d="M 144.035156 157.441406 C 144 157.441406 143.964844 157.441406 143.933594 157.441406 C 140.066406 157.390625 136.964844 154.515625 136.390625 150.472656 C 136.390625 150.460938 136.390625 150.441406 136.390625 150.441406 C 136.375 150.351562 135.328125 142.152344 133.953125 132.191406 C 133.742188 130.65625 134.808594 129.265625 136.335938 129.054688 C 137.851562 128.847656 150.132812 128.863281 151.664062 129.039062 C 153.195312 129.230469 154.277344 130.605469 154.101562 132.136719 C 152.902344 142.132812 151.839844 150.351562 151.839844 150.441406 C 151.839844 150.472656 151.820312 150.527344 151.820312 150.5625 C 151.105469 154.636719 147.921875 157.441406 144.035156 157.441406 " fill-opacity="1" fill-rule="evenodd"/><path fill="#ffffff" d="M 156.367188 134.59375 L 131.636719 134.59375 C 126.933594 134.59375 123.101562 130.761719 123.101562 126.0625 C 123.101562 121.359375 126.933594 117.527344 131.636719 117.527344 L 156.367188 117.527344 C 161.171875 117.527344 165.074219 121.359375 165.074219 126.0625 C 165.074219 130.761719 161.171875 134.59375 156.367188 134.59375 " fill-opacity="1" fill-rule="evenodd"/><g clip-path="url(#61b18723cb)"><path fill="#ffffff" d="M 120.382812 53.4375 C 119.886719 51.75 119.5625 49.992188 119.429688 48.179688 C 118.941406 41.457031 120.960938 34.351562 125.4375 27.070312 C 128.035156 22.859375 129.578125 30.78125 129.589844 30.789062 C 131.140625 26.292969 133.5 17.457031 137.835938 14.011719 C 143.445312 9.535156 149.382812 7.652344 149.628906 7.585938 C 150.808594 7.21875 152.082031 7.671875 152.761719 8.699219 C 153.441406 9.726562 153.390625 11.070312 152.605469 12.027344 C 146.890625 18.9375 154.835938 29.402344 155.234375 29.929688 C 156.851562 31.878906 158.089844 34.457031 158.980469 36.824219 C 159.449219 34.054688 158.753906 31.425781 158.734375 31.390625 C 158.402344 30.222656 158.855469 28.988281 159.867188 28.308594 C 160.878906 27.628906 162.199219 27.699219 163.140625 28.449219 C 166.347656 30.972656 168.242188 35.519531 168.609375 41.613281 C 168.84375 45.410156 168.441406 49.777344 167.558594 53.4375 L 120.382812 53.4375 " fill-opacity="1" fill-rule="evenodd"/></g><path fill="#ffffff" d="M 144 238.210938 C 145.535156 238.210938 146.785156 236.960938 146.785156 235.425781 L 146.785156 207.074219 L 146.78125 207 L 146.765625 206.859375 L 146.753906 206.792969 L 146.730469 206.652344 L 146.714844 206.589844 L 146.699219 206.519531 L 146.683594 206.453125 L 146.660156 206.386719 L 146.640625 206.320312 L 146.570312 206.132812 L 146.539062 206.070312 L 146.511719 206.007812 L 146.480469 205.949219 L 146.449219 205.886719 L 146.417969 205.832031 L 146.382812 205.773438 L 146.308594 205.65625 L 146.269531 205.605469 L 146.234375 205.550781 L 146.148438 205.441406 L 146.105469 205.394531 L 146.015625 205.292969 L 145.875 205.152344 L 145.773438 205.066406 L 145.71875 205.023438 L 145.667969 204.984375 L 145.609375 204.945312 L 145.554688 204.902344 L 145.5 204.867188 L 145.386719 204.800781 L 145.328125 204.765625 L 145.207031 204.703125 L 145.144531 204.675781 L 145.019531 204.625 L 145.019531 204.621094 L 144.894531 204.574219 L 144.828125 204.550781 L 144.761719 204.53125 L 144.628906 204.5 L 144.492188 204.46875 L 144.425781 204.460938 L 144.285156 204.441406 L 144.214844 204.4375 L 144.144531 204.429688 L 138.777344 204.429688 C 137.246094 204.429688 135.988281 205.679688 135.988281 207.214844 C 135.988281 208.746094 137.246094 210 138.777344 210 L 141.214844 210 L 141.214844 235.425781 C 141.214844 236.960938 142.46875 238.210938 144 238.210938 Z M 109.867188 269.609375 L 109.867188 178.824219 C 109.984375 178.828125 110.097656 178.828125 110.214844 178.828125 L 177.785156 178.828125 C 177.902344 178.828125 178.019531 178.828125 178.136719 178.824219 L 178.136719 269.609375 L 109.867188 269.609375 " fill-opacity="1" fill-rule="evenodd"/><path fill="#ffffff" d="M 177.785156 173.253906 L 110.214844 173.253906 C 107.882812 173.253906 105.6875 172.328125 104.015625 170.625 C 102.414062 168.988281 101.511719 166.777344 101.511719 164.546875 C 101.511719 162.195312 102.414062 160.019531 104.050781 158.382812 C 105.6875 156.746094 107.882812 155.839844 110.214844 155.839844 L 177.785156 155.839844 C 180.136719 155.839844 182.316406 156.746094 183.949219 158.382812 C 185.589844 160.019531 186.492188 162.210938 186.492188 164.546875 C 186.492188 166.777344 185.570312 169.003906 183.988281 170.625 C 182.316406 172.328125 180.121094 173.253906 177.785156 173.253906 " fill-opacity="1" fill-rule="evenodd"/><path fill="#ffffff" d="M 104.292969 197.8125 L 54.136719 197.8125 C 51.910156 197.8125 49.683594 196.886719 48.058594 195.304688 C 46.371094 193.648438 45.433594 191.453125 45.433594 189.101562 C 45.433594 186.871094 46.371094 184.644531 48.027344 182.992188 C 49.683594 181.335938 51.910156 180.394531 54.136719 180.394531 L 104.292969 180.394531 L 104.292969 197.8125 " fill-opacity="1" fill-rule="evenodd"/><g clip-path="url(#669ebfdd3a)"><path fill="#ffffff" d="M 248.839844 280.757812 L 39.164062 280.757812 C 37.628906 280.757812 36.375 279.5 36.375 277.96875 C 36.375 276.4375 37.628906 275.179688 39.164062 275.179688 L 248.839844 275.179688 C 250.375 275.179688 251.628906 276.4375 251.628906 277.96875 C 251.628906 279.5 250.375 280.757812 248.839844 280.757812 " fill-opacity="1" fill-rule="evenodd"/></g><path fill="#ffffff" d="M 90.097656 250.578125 C 91.628906 250.578125 92.882812 249.324219 92.882812 247.792969 C 92.882812 246.261719 91.628906 245.003906 90.097656 245.003906 L 79.613281 245.003906 L 89.035156 234.503906 C 89.089844 234.433594 89.140625 234.382812 89.191406 234.3125 C 90.636719 232.394531 91.488281 229.871094 91.488281 227.589844 C 91.488281 221.636719 86.648438 216.792969 80.691406 216.792969 C 75.660156 216.792969 71.324219 220.257812 70.136719 225.203125 C 69.789062 226.699219 70.714844 228.21875 72.210938 228.566406 C 73.710938 228.914062 75.222656 227.992188 75.570312 226.492188 C 76.148438 224.019531 78.21875 222.367188 80.691406 222.367188 C 83.566406 222.367188 85.914062 224.714844 85.914062 227.589844 C 85.914062 228.652344 85.480469 229.921875 84.800781 230.882812 L 71.304688 245.929688 C 70.574219 246.746094 70.382812 247.914062 70.835938 248.921875 C 71.289062 249.933594 72.28125 250.578125 73.378906 250.578125 Z M 60.582031 269.609375 L 60.582031 203.382812 L 104.292969 203.382812 L 104.292969 269.609375 L 60.582031 269.609375 " fill-opacity="1" fill-rule="evenodd"/><path fill="#ffffff" d="M 204.6875 250.539062 L 205.875 264.648438 C 211.253906 264.648438 215.628906 260.191406 215.628906 254.726562 C 215.628906 251.957031 214.46875 249.457031 212.617188 247.679688 C 214.480469 245.898438 215.644531 243.394531 215.644531 240.617188 C 215.644531 235.234375 211.273438 230.863281 205.894531 230.863281 C 200.511719 230.863281 196.140625 235.234375 196.140625 240.617188 C 196.140625 242.148438 197.394531 243.402344 198.925781 243.402344 C 200.460938 243.402344 201.714844 242.148438 201.714844 240.617188 C 201.714844 238.316406 203.59375 236.4375 205.894531 236.4375 C 208.191406 236.4375 210.074219 238.316406 210.074219 240.617188 C 210.074219 242.914062 208.191406 244.796875 205.894531 244.796875 C 205.414062 244.796875 204.667969 244.796875 203.820312 245.160156 C 202.828125 245.550781 202.109375 246.492188 202.046875 247.605469 L 202.046875 247.636719 C 202.023438 248.101562 202.117188 248.570312 202.339844 249.011719 C 202.78125 249.894531 203.625 250.4375 204.542969 250.53125 C 204.59375 250.535156 204.636719 250.539062 204.6875 250.539062 Z M 205.875 264.648438 L 204.6875 250.539062 L 204.734375 250.542969 L 205.875 250.542969 C 208.171875 250.542969 210.054688 252.425781 210.054688 254.726562 C 210.054688 257.164062 208.226562 259.078125 205.875 259.078125 C 203.523438 259.078125 201.695312 257.164062 201.695312 254.726562 C 201.695312 253.191406 200.441406 251.9375 198.910156 251.9375 C 197.375 251.9375 196.121094 253.191406 196.121094 254.726562 C 196.121094 260.191406 200.492188 264.648438 205.875 264.648438 Z M 183.707031 269.609375 L 183.707031 224.105469 L 227.421875 224.105469 L 227.421875 269.609375 L 183.707031 269.609375 " fill-opacity="1" fill-rule="evenodd"/><path fill="#ffffff" d="M 233.6875 218.535156 L 183.707031 218.535156 L 183.707031 201.121094 L 233.6875 201.121094 C 236.039062 201.121094 238.214844 202.023438 239.855469 203.664062 C 241.492188 205.296875 242.398438 207.492188 242.398438 209.824219 C 242.398438 212.054688 241.472656 214.285156 239.886719 215.902344 C 238.214844 217.613281 236.023438 218.535156 233.6875 218.535156 " fill-opacity="1" fill-rule="evenodd"/></svg>