<svg xmlns="http://www.w3.org/2000/svg" xmlns:xlink="http://www.w3.org/1999/xlink" width="384" zoomAndPan="magnify" viewBox="0 0 288 287.999989" height="384" preserveAspectRatio="xMidYMid meet" version="1.0"><defs><clipPath id="7effc68ae8"><path d="M 63.078125 129.722656 L 234 129.722656 L 234 259.050781 L 63.078125 259.050781 Z M 63.078125 129.722656 " clip-rule="nonzero"/></clipPath></defs><g clip-path="url(#7effc68ae8)"><path fill="#ffffff" d="M 100.75 174.597656 C 87.109375 188.355469 57.664062 195.546875 64.367188 231.261719 C 71.207031 267.667969 121.628906 258.28125 147.917969 257.476562 C 161.902344 257.054688 219.414062 267.785156 230.761719 238.898438 C 240.683594 213.628906 224.304688 196.714844 199.507812 176.8125 C 177.359375 159.039062 171.0625 129.5 145.390625 129.757812 C 121.347656 129.996094 109.101562 166.171875 100.75 174.597656 " fill-opacity="1" fill-rule="nonzero"/></g><path fill="#ffffff" d="M 54.121094 120.40625 C 68.210938 136.28125 70.882812 156.390625 60.09375 165.335938 C 49.304688 174.273438 29.144531 168.65625 15.0625 152.785156 C 0.980469 136.914062 -1.695312 116.796875 9.085938 107.859375 C 19.875 98.921875 40.035156 104.542969 54.121094 120.40625 " fill-opacity="1" fill-rule="nonzero"/><path fill="#ffffff" d="M 122.78125 70.371094 C 129.535156 93.214844 123.183594 115.007812 108.605469 119.042969 C 94.011719 123.089844 76.714844 107.84375 69.964844 84.996094 C 63.207031 62.152344 69.554688 40.363281 84.144531 36.320312 C 98.730469 32.28125 116.027344 47.527344 122.78125 70.371094 " fill-opacity="1" fill-rule="nonzero"/><path fill="#ffffff" d="M 211.003906 80.234375 C 204.230469 102.597656 187.25 117.578125 173.089844 113.6875 C 158.929688 109.800781 152.933594 88.519531 159.707031 66.15625 C 166.480469 43.785156 183.457031 28.804688 197.621094 32.691406 C 211.78125 36.574219 217.777344 57.863281 211.003906 80.234375 " fill-opacity="1" fill-rule="nonzero"/><path fill="#ffffff" d="M 272.167969 152.007812 C 257.367188 169.109375 236.070312 175.453125 224.589844 166.171875 C 213.113281 156.890625 215.800781 135.503906 230.597656 118.398438 C 245.398438 101.292969 266.703125 94.953125 278.1875 104.230469 C 289.667969 113.511719 286.972656 134.898438 272.167969 152.007812 " fill-opacity="1" fill-rule="nonzero"/></svg>