<svg xmlns="http://www.w3.org/2000/svg" xmlns:xlink="http://www.w3.org/1999/xlink" width="384" zoomAndPan="magnify" viewBox="0 0 288 287.999989" height="384" preserveAspectRatio="xMidYMid meet" version="1.0"><defs><clipPath id="f241ecf421"><path d="M 52.417969 17 L 235.417969 17 L 235.417969 267.765625 L 52.417969 267.765625 Z M 52.417969 17 " clip-rule="nonzero"/></clipPath></defs><g clip-path="url(#f241ecf421)"><path fill="#f0f0f0" d="M 52.417969 267.765625 L 52.417969 17.6875 L 235.582031 17.6875 L 235.582031 267.765625 L 52.417969 267.765625 " fill-opacity="1" fill-rule="nonzero"/></g><path fill="#ffffff" d="M 147.628906 14.214844 L 140.371094 14.214844 C 138.367188 14.214844 137.035156 16.125 137.371094 18.269531 L 137.941406 21.90625 L 138.003906 22.304688 L 138.003906 22.3125 C 138.035156 22.507812 138.222656 22.671875 138.414062 22.671875 L 149.585938 22.671875 C 149.78125 22.671875 149.964844 22.507812 149.996094 22.3125 L 150.058594 21.90625 L 150.625 18.269531 C 150.960938 16.125 149.628906 14.214844 147.628906 14.214844 " fill-opacity="1" fill-rule="nonzero"/><path fill="#ffffff" d="M 226.691406 258.191406 L 61.308594 258.191406 L 61.308594 27.265625 L 226.691406 27.265625 L 226.691406 258.191406 " fill-opacity="1" fill-rule="nonzero"/><path fill="#ffffff" d="M 145.851562 13.007812 C 145.785156 11.996094 145.996094 11.558594 146.328125 11.007812 C 146.738281 10.328125 147.125 9.609375 147.078125 8.957031 C 147.015625 8.160156 146.351562 7.722656 145.863281 7.464844 C 145.257812 7.144531 144.265625 7.183594 144 7.199219 C 143.730469 7.183594 142.746094 7.144531 142.140625 7.464844 C 141.644531 7.722656 140.984375 8.160156 140.921875 8.957031 C 140.875 9.609375 141.265625 10.328125 141.675781 11.007812 C 142.003906 11.558594 142.214844 11.996094 142.148438 13.007812 C 142.09375 13.90625 140.570312 19.308594 140.023438 21.242188 L 140.777344 21.242188 C 140.859375 20.957031 142.773438 14.210938 142.847656 13.054688 C 142.925781 11.84375 142.636719 11.25 142.277344 10.648438 C 142.035156 10.242188 141.585938 9.5 141.621094 9.007812 C 141.648438 8.65625 141.898438 8.378906 142.464844 8.082031 C 142.875 7.867188 143.71875 7.878906 144.007812 7.90625 L 144.007812 7.886719 C 144.394531 7.875 145.175781 7.890625 145.535156 8.082031 C 146.097656 8.378906 146.351562 8.65625 146.378906 9.007812 C 146.414062 9.5 145.96875 10.242188 145.726562 10.648438 C 145.367188 11.25 145.074219 11.84375 145.152344 13.054688 C 145.226562 14.210938 147.144531 20.957031 147.222656 21.242188 L 147.949219 21.242188 C 147.402344 19.308594 145.90625 13.90625 145.851562 13.007812 " fill-opacity="1" fill-rule="nonzero"/></svg>