<svg xmlns="http://www.w3.org/2000/svg" xmlns:xlink="http://www.w3.org/1999/xlink" width="384" zoomAndPan="magnify" viewBox="0 0 288 287.999989" height="384" preserveAspectRatio="xMidYMid meet" version="1.0"><defs><clipPath id="22baa24da0"><path d="M 20.761719 25 L 267.511719 25 L 267.511719 283.707031 L 20.761719 283.707031 Z M 20.761719 25 " clip-rule="nonzero"/></clipPath><clipPath id="c1f7e870cd"><path d="M 129 3.957031 L 181 3.957031 L 181 34 L 129 34 Z M 129 3.957031 " clip-rule="nonzero"/></clipPath></defs><path fill="#f0f0f0" d="M 227.542969 94.84375 L 209.535156 100.203125 C 198.667969 103.4375 191.742188 105.75 192.054688 106.03125 C 192.339844 106.289062 199.285156 109.777344 207.496094 113.785156 L 222.238281 125.6875 L 263.328125 109.5 C 263.328125 109.328125 259.382812 107.621094 254.605469 105.714844 C 249.824219 103.808594 241.773438 100.59375 236.71875 98.554688 Z M 227.542969 94.84375 " fill-opacity="1" fill-rule="nonzero"/><g clip-path="url(#22baa24da0)"><path fill="#f0f0f0" d="M 159.0625 25.554688 C 158.75 25.589844 158.4375 25.6875 158.136719 25.785156 L 21.976562 71.308594 C 21.703125 71.789062 21.339844 73.851562 21.101562 74.351562 C 21 74.679688 20.988281 74.875 20.960938 75.046875 C 20.910156 75.382812 20.871094 75.558594 20.871094 75.691406 L 20.871094 76.152344 C 20.886719 76.335938 20.90625 76.390625 20.917969 76.476562 C 20.9375 76.648438 20.984375 76.804688 21.007812 76.980469 C 21.058594 77.339844 21.140625 77.777344 21.238281 78.367188 L 45.039062 211.390625 C 45.246094 212.507812 45.867188 213.578125 46.746094 214.296875 L 48.222656 215.496094 C 76.011719 237.113281 101.65625 260.226562 129.492188 282.007812 C 129.890625 282.320312 130.1875 282.589844 130.460938 282.792969 C 130.597656 282.894531 130.703125 282.953125 130.878906 283.070312 C 130.964844 283.128906 131.039062 283.226562 131.246094 283.347656 C 131.351562 283.40625 131.527344 283.457031 131.800781 283.578125 C 132.066406 283.691406 132.242188 283.988281 133.785156 283.945312 L 133.785156 283.992188 L 133.875 283.992188 L 133.875 283.945312 C 133.992188 283.929688 135.226562 283.78125 135.765625 283.53125 C 136.332031 283.265625 136.738281 282.914062 137.058594 282.609375 L 266.023438 211.761719 C 267.101562 210.359375 266.882812 210.101562 266.945312 209.824219 C 267.011719 209.542969 267.019531 209.40625 267.039062 209.269531 C 267.074219 208.992188 267.070312 208.792969 267.082031 208.578125 C 267.113281 208.148438 267.113281 207.6875 267.128906 207.101562 L 263.8125 113.375 L 263.625 109.410156 L 260.976562 109.917969 L 222.320312 125.039062 C 221.789062 122.929688 221.714844 122.621094 222.246094 121.621094 L 239.257812 100.097656 C 239.140625 99.792969 254.253906 92.570312 254.152344 92.257812 C 252.765625 87.949219 258.433594 88.265625 258.363281 83.578125 L 254.953125 57.933594 L 160.953125 25.738281 C 160.332031 25.550781 159.703125 25.527344 159.0625 25.597656 Z M 159.0625 25.554688 " fill-opacity="1" fill-rule="nonzero"/></g><g clip-path="url(#c1f7e870cd)"><path fill="#f0f0f0" d="M 159.566406 3.964844 C 159.410156 3.972656 159.253906 4.003906 159.105469 4.054688 L 130.691406 14.527344 C 130.398438 14.628906 130.152344 14.804688 129.957031 15.042969 C 129.757812 15.28125 129.632812 15.558594 129.585938 15.863281 C 129.539062 16.171875 129.570312 16.46875 129.6875 16.757812 C 129.804688 17.046875 129.984375 17.289062 130.230469 17.476562 L 149.464844 32.789062 C 149.941406 33.160156 150.460938 33.253906 151.035156 33.066406 L 178.941406 23.980469 C 179.238281 23.894531 179.492188 23.734375 179.703125 23.511719 C 179.914062 23.285156 180.050781 23.019531 180.121094 22.71875 C 180.1875 22.417969 180.171875 22.117188 180.078125 21.824219 C 179.980469 21.53125 179.816406 21.28125 179.585938 21.074219 L 160.859375 4.378906 C 160.488281 4.050781 160.058594 3.914062 159.566406 3.960938 Z M 159.566406 3.964844 " fill-opacity="1" fill-rule="nonzero"/></g><path fill="#f0f0f0" d="M 87.570312 52.765625 L 90.175781 80.890625 L 62.4375 62.199219 L 64.351562 36.105469 Z M 87.570312 52.765625 " fill-opacity="1" fill-rule="nonzero"/><path fill="#f0f0f0" d="M 134.664062 35.691406 L 87.570312 52.761719 L 90.175781 80.890625 L 137.3125 63.824219 L 134.660156 35.691406 Z M 134.664062 35.691406 " fill-opacity="1" fill-rule="nonzero"/><path fill="#f0f0f0" d="M 137.980469 73.777344 L 140.519531 100.980469 L 107.296875 92.640625 L 104.78125 65.414062 Z M 137.980469 73.777344 " fill-opacity="1" fill-rule="nonzero"/><path fill="#f0f0f0" d="M 137.980469 73.777344 L 140.519531 100.980469 L 174.566406 78.394531 L 172.03125 51.160156 Z M 137.980469 73.777344 " fill-opacity="1" fill-rule="nonzero"/><path fill="#f0f0f0" d="M 129.730469 16.335938 L 150.578125 31.445312 L 152.9375 55.992188 L 125.441406 38.269531 Z M 129.730469 16.335938 " fill-opacity="1" fill-rule="nonzero"/><path fill="#f0f0f0" d="M 150.578125 31.4375 L 152.941406 55.988281 L 171.972656 45.425781 L 179.960938 22.261719 Z M 150.578125 31.4375 " fill-opacity="1" fill-rule="nonzero"/><path fill="#f0f0f0" d="M 184.84375 25.234375 C 184.714844 25.25 184.59375 25.28125 184.472656 25.324219 L 155.046875 36.117188 C 154.722656 36.238281 154.453125 36.429688 154.242188 36.703125 C 154.027344 36.972656 153.902344 37.277344 153.863281 37.621094 C 153.824219 37.960938 153.878906 38.289062 154.023438 38.597656 C 154.171875 38.910156 154.386719 39.160156 154.675781 39.347656 L 179.582031 55.90625 C 180.128906 56.257812 180.695312 56.304688 181.289062 56.046875 L 214.222656 42.667969 C 214.542969 42.527344 214.800781 42.3125 214.992188 42.019531 C 215.1875 41.730469 215.289062 41.410156 215.300781 41.0625 C 215.308594 40.710938 215.226562 40.386719 215.046875 40.085938 C 214.871094 39.785156 214.625 39.554688 214.316406 39.394531 L 185.902344 25.417969 C 185.566406 25.246094 185.214844 25.1875 184.839844 25.234375 Z M 184.84375 25.234375 " fill-opacity="1" fill-rule="nonzero"/><path fill="#f0f0f0" d="M 115.011719 25.503906 C 114.902344 25.519531 114.792969 25.527344 114.6875 25.550781 L 66.074219 33.898438 C 64.382812 34.199219 63.71875 36.789062 65.058594 37.863281 L 86.183594 54.515625 C 86.777344 54.996094 87.628906 55.140625 88.351562 54.886719 L 135.121094 42.800781 C 135.96875 42.484375 136.578125 41.621094 136.585938 40.71875 C 136.601562 39.816406 136.007812 38.9375 135.167969 38.601562 L 115.886719 25.6875 C 115.613281 25.570312 115.3125 25.507812 115.011719 25.503906 Z M 115.011719 25.503906 " fill-opacity="1" fill-rule="nonzero"/><path fill="#f0f0f0" d="M 213.53125 40.984375 L 215.878906 66.414062 L 182.949219 79.773438 L 180.601562 54.378906 Z M 213.53125 40.984375 " fill-opacity="1" fill-rule="nonzero"/><path fill="#f0f0f0" d="M 219.480469 33.949219 C 219.203125 33.960938 218.941406 34.039062 218.699219 34.179688 L 188.488281 52.585938 C 188.191406 52.757812 187.96875 53 187.824219 53.308594 C 187.679688 53.621094 187.632812 53.945312 187.691406 54.28125 C 187.746094 54.621094 187.894531 54.914062 188.132812 55.160156 C 188.371094 55.40625 188.65625 55.5625 188.992188 55.628906 L 220.449219 62.640625 C 220.875 62.738281 221.273438 62.675781 221.648438 62.457031 L 256.796875 42.4375 C 257.09375 42.257812 257.3125 42.007812 257.453125 41.691406 C 257.59375 41.375 257.632812 41.046875 257.566406 40.703125 C 257.496094 40.363281 257.339844 40.074219 257.089844 39.832031 C 256.839844 39.59375 256.542969 39.445312 256.199219 39.394531 L 219.804688 33.996094 C 219.699219 33.96875 219.589844 33.957031 219.480469 33.949219 Z M 219.480469 33.949219 " fill-opacity="1" fill-rule="nonzero"/><path fill="#f0f0f0" d="M 220.804688 60.996094 L 256.050781 40.410156 C 256.597656 40.472656 257.015625 39.878906 257.441406 40.65625 L 258.527344 88.507812 C 258.5625 90.226562 258.695312 91.390625 256.703125 92.28125 L 225.011719 112.59375 L 220.804688 61 Z M 220.804688 60.996094 " fill-opacity="1" fill-rule="nonzero"/><path fill="#ffffff" d="M 159.683594 5.695312 L 131.304688 16.140625 L 150.527344 31.441406 L 178.449219 22.386719 Z M 159.683594 5.695312 " fill-opacity="1" fill-rule="nonzero"/><path fill="#ffffff" d="M 25.75 75.773438 C 25.6875 75.859375 27.441406 85.957031 29.636719 98.214844 C 33.09375 117.496094 33.753906 120.625 34.585938 121.269531 C 35.722656 122.152344 56.144531 132.589844 56.660156 132.550781 C 56.855469 132.535156 55.453125 122.5 53.558594 110.257812 C 51.664062 98.015625 49.984375 87.714844 49.820312 87.371094 C 49.539062 86.777344 26.003906 75.4375 25.75 75.773438 Z M 25.75 75.773438 " fill-opacity="1" fill-rule="nonzero"/><path fill="#ffffff" d="M 53.683594 88.734375 L 53.796875 90.441406 C 53.859375 91.375 55.453125 101.734375 57.34375 113.46875 L 60.78125 134.804688 L 73.679688 141.367188 C 80.773438 144.976562 86.605469 147.894531 86.632812 147.855469 C 86.664062 147.816406 85.375 137.390625 83.761719 124.683594 L 80.835938 101.566406 L 67.261719 95.152344 Z M 53.683594 88.734375 " fill-opacity="1" fill-rule="nonzero"/><path fill="#ffffff" d="M 215.179688 79.976562 C 212.082031 80.75 168.074219 97.355469 167.53125 97.976562 C 167.367188 98.167969 168.074219 106.03125 169.117188 115.46875 C 170.15625 124.902344 171.265625 135.449219 171.585938 138.910156 C 171.902344 142.367188 172.367188 145.160156 172.601562 145.117188 C 172.839844 145.085938 183.261719 140.816406 195.761719 135.652344 C 208.257812 130.484375 218.570312 126.140625 218.679688 125.992188 C 219.023438 125.53125 215.757812 80.253906 215.355469 79.949219 C 215.332031 79.933594 215.277344 79.933594 215.179688 79.976562 Z M 215.179688 79.976562 " fill-opacity="1" fill-rule="nonzero"/><path fill="#ffffff" d="M 84.179688 103.183594 L 87.296875 126.253906 C 89.632812 143.582031 90.585938 149.476562 91.117188 149.941406 C 91.976562 150.691406 118.398438 164.234375 118.945312 164.203125 C 119.160156 164.1875 118.128906 155.753906 116.660156 145.449219 C 115.1875 135.148438 113.820312 124.46875 113.613281 121.71875 L 113.238281 116.714844 L 111.8125 116.398438 C 111.03125 116.222656 105.160156 113.488281 98.769531 110.3125 C 92.378906 107.140625 86.492188 104.238281 85.675781 103.863281 Z M 84.179688 103.183594 " fill-opacity="1" fill-rule="nonzero"/><path fill="#ffffff" d="M 163.3125 99.652344 C 160.9375 99.96875 117.96875 116.78125 117.484375 117.570312 C 117.078125 118.234375 117.730469 123.851562 120.289062 141.777344 C 122.125 154.621094 123.796875 165.105469 124.007812 165.074219 C 124.214844 165.042969 134.296875 160.933594 146.417969 155.941406 C 158.535156 150.953125 168.613281 146.644531 168.796875 146.375 C 168.980469 146.109375 168.058594 136.5625 166.757812 125.164062 C 165.457031 113.765625 164.359375 103.332031 164.308594 101.980469 C 164.234375 99.871094 164.09375 99.546875 163.3125 99.652344 Z M 163.3125 99.652344 " fill-opacity="1" fill-rule="nonzero"/><path fill="#ffffff" d="M 34.984375 125.976562 C 34.675781 126.390625 41.375 164.558594 42.136719 166.742188 C 42.59375 168.046875 44.640625 169.566406 53.554688 175.207031 L 64.414062 182.074219 L 63.53125 174.96875 C 63.042969 171.058594 61.480469 160.921875 60.054688 152.433594 L 57.460938 136.988281 L 46.34375 131.3125 C 40.230469 128.191406 35.121094 125.792969 34.984375 125.976562 Z M 34.984375 125.976562 " fill-opacity="1" fill-rule="nonzero"/><path fill="#ffffff" d="M 61.5 139.234375 C 61.449219 139.339844 62.972656 149.554688 64.902344 161.925781 C 67.59375 179.289062 68.554688 184.535156 69.132812 184.96875 C 69.546875 185.277344 75.210938 188.90625 81.726562 193.019531 L 93.570312 200.496094 L 92.3125 189.429688 C 91.625 183.34375 90.246094 172.46875 89.253906 165.273438 L 87.453125 152.203125 L 74.519531 145.617188 C 67.40625 141.996094 61.546875 139.125 61.5 139.234375 Z M 61.5 139.234375 " fill-opacity="1" fill-rule="nonzero"/><path fill="#ffffff" d="M 260.574219 112.8125 C 259.976562 112.898438 222.726562 128.105469 222.519531 128.355469 C 222.40625 128.488281 225.644531 176.636719 225.878906 178.289062 C 225.953125 178.832031 226.273438 179.101562 226.617188 178.917969 C 226.949219 178.738281 234.75 175.339844 243.953125 171.371094 C 253.15625 167.398438 260.953125 163.921875 261.28125 163.648438 C 261.6875 163.308594 261.765625 155.496094 261.511719 139.625 C 261.300781 126.691406 261.132812 115.351562 261.144531 114.421875 C 261.164062 113.308594 260.972656 112.757812 260.574219 112.8125 Z M 260.574219 112.8125 " fill-opacity="1" fill-rule="nonzero"/><path fill="#ffffff" d="M 218.957031 129.777344 L 196.070312 139.207031 C 183.480469 144.390625 173.082031 148.75 172.976562 148.890625 C 172.761719 149.171875 176.914062 188.421875 177.894531 195.417969 L 178.5 199.800781 L 200.308594 190.332031 C 212.304688 185.121094 222.238281 180.703125 222.378906 180.519531 C 222.625 180.191406 219.714844 135.394531 219.203125 131.644531 Z M 218.957031 129.777344 " fill-opacity="1" fill-rule="nonzero"/><path fill="#ffffff" d="M 91.097656 154.175781 C 90.972656 154.191406 92.453125 165.273438 94.402344 178.796875 L 97.945312 203.386719 L 126.15625 221.105469 L 125.535156 214.480469 C 125.199219 210.839844 123.679688 198.988281 122.167969 188.144531 L 119.417969 168.433594 L 105.378906 161.285156 C 97.652344 157.359375 91.230469 154.15625 91.101562 154.175781 Z M 91.097656 154.175781 " fill-opacity="1" fill-rule="nonzero"/><path fill="#ffffff" d="M 169.292969 150.554688 C 169.058594 150.378906 124.558594 168.480469 124.363281 168.832031 C 124.332031 168.890625 125.800781 180.527344 127.617188 194.683594 C 130.875 220.070312 130.917969 220.414062 131.867188 220.015625 C 132.394531 219.792969 142.308594 215.488281 153.890625 210.46875 L 174.953125 201.332031 L 174.5 195.886719 C 173.691406 186.433594 169.597656 150.78125 169.296875 150.554688 Z M 169.292969 150.554688 " fill-opacity="1" fill-rule="nonzero"/><path fill="#ffffff" d="M 43.308594 173.511719 C 43.289062 173.511719 43.292969 173.539062 43.292969 173.550781 C 43.277344 173.945312 44.734375 182.4375 46.539062 192.410156 L 49.824219 210.535156 L 51.300781 211.753906 L 62.144531 220.671875 L 71.53125 228.367188 L 70.316406 218.726562 C 69.648438 213.414062 68.238281 204.019531 67.160156 197.851562 L 65.199219 186.640625 L 54.269531 179.734375 C 48.097656 175.839844 43.59375 173.289062 43.304688 173.515625 Z M 43.308594 173.511719 " fill-opacity="1" fill-rule="nonzero"/><path fill="#ffffff" d="M 69.625 189.4375 L 70.832031 199.03125 C 71.5 204.316406 72.9375 213.921875 74.058594 220.367188 L 76.089844 232.089844 L 88.238281 242.058594 L 100.40625 252.023438 L 99.769531 245.300781 C 99.421875 241.605469 98.097656 231.078125 96.820312 221.898438 L 94.5 205.195312 Z M 69.625 189.4375 " fill-opacity="1" fill-rule="nonzero"/><path fill="#ffffff" d="M 260.953125 168.152344 C 259.339844 168.496094 254.925781 170.347656 243.910156 175.136719 C 234.21875 179.351562 226.261719 182.835938 226.226562 182.894531 C 226.195312 182.953125 226.761719 191.574219 227.5 202.054688 C 228.238281 212.53125 228.886719 222.480469 228.949219 224.164062 C 229.058594 227.019531 229.128906 227.195312 229.980469 226.710938 C 230.484375 226.425781 237.84375 222.390625 246.335938 217.746094 C 254.824219 213.105469 261.949219 209.078125 262.171875 208.789062 C 262.589844 208.246094 262.203125 169.640625 261.765625 168.261719 C 261.710938 168.101562 261.488281 168.039062 260.953125 168.152344 Z M 260.953125 168.152344 " fill-opacity="1" fill-rule="nonzero"/><path fill="#ffffff" d="M 222.632812 184.578125 C 222.285156 184.449219 179.140625 203.15625 178.875 203.550781 C 178.773438 203.699219 179.730469 212.917969 180.988281 224.039062 C 182.246094 235.15625 183.382812 245.9375 183.515625 247.992188 C 183.644531 250.046875 183.882812 251.710938 184.042969 251.6875 C 184.203125 251.664062 193.667969 246.535156 205.070312 240.296875 L 225.800781 228.96875 L 225.84375 227.320312 C 225.898438 224.203125 222.929688 184.6875 222.632812 184.578125 Z M 222.632812 184.578125 " fill-opacity="1" fill-rule="nonzero"/><path fill="#ffffff" d="M 98.445312 207.816406 C 98.191406 207.761719 99.515625 218.5 101.398438 231.679688 L 104.820312 255.648438 L 119.109375 267.390625 C 126.96875 273.851562 133.539062 279.128906 133.703125 279.121094 C 133.871094 279.121094 132.878906 270.109375 131.496094 259.105469 C 130.117188 248.101562 128.554688 236.09375 128.027344 232.425781 L 127.054688 225.753906 L 112.976562 216.84375 C 105.230469 211.941406 98.695312 207.875 98.441406 207.816406 Z M 98.445312 207.816406 " fill-opacity="1" fill-rule="nonzero"/><path fill="#ffffff" d="M 175.367188 205.175781 C 175.175781 205.03125 162.195312 210.578125 132.359375 223.570312 C 131.554688 223.917969 131.742188 225.636719 135.246094 250.183594 C 137.316406 264.679688 139.183594 276.308594 139.414062 276.179688 L 160.402344 264.714844 L 180.96875 253.492188 L 180.546875 250.398438 C 180.304688 248.703125 179.09375 237.875 177.859375 226.335938 C 176.621094 214.796875 175.507812 205.273438 175.375 205.171875 Z M 175.367188 205.175781 " fill-opacity="1" fill-rule="nonzero"/><path fill="#ffffff" d="M 67.382812 59.472656 L 49.636719 65.042969 C 39.875 68.113281 31.78125 70.761719 31.65625 70.925781 C 31.53125 71.09375 31.796875 71.386719 32.25 71.574219 C 32.703125 71.757812 37.355469 73.996094 42.582031 76.535156 C 47.808594 79.074219 52.425781 81.105469 52.851562 81.066406 C 53.273438 81.027344 61.414062 78.214844 70.941406 74.808594 C 80.464844 71.40625 88.410156 68.460938 88.582031 68.261719 C 88.753906 68.058594 84.054688 65.988281 78.144531 63.671875 L 67.386719 59.472656 Z M 67.382812 59.472656 " fill-opacity="1" fill-rule="nonzero"/><path fill="#ffffff" d="M 130.378906 84.15625 L 111.152344 91.90625 C 100.570312 96.167969 91.933594 99.789062 91.964844 99.941406 C 92.058594 100.355469 115.640625 111.660156 116.234375 111.578125 C 116.515625 111.539062 126.171875 107.9375 137.683594 103.574219 C 149.195312 99.210938 158.671875 95.5625 158.746094 95.464844 C 158.816406 95.367188 152.464844 92.785156 144.628906 89.726562 Z M 130.378906 84.15625 " fill-opacity="1" fill-rule="nonzero"/><path fill="#ffffff" d="M 93.25 70.40625 C 92.683594 70.621094 84.535156 73.542969 75.144531 76.890625 C 65.753906 80.238281 57.847656 83.074219 57.582031 83.199219 C 57.316406 83.328125 63.878906 86.683594 72.152344 90.644531 L 87.1875 97.84375 L 101.957031 91.898438 L 121.050781 84.234375 C 123.414062 83.28125 125.144531 82.355469 124.898438 82.171875 C 124.65625 81.988281 117.667969 79.175781 109.363281 75.921875 C 99.066406 71.886719 93.949219 70.132812 93.25 70.40625 Z M 93.25 70.40625 " fill-opacity="1" fill-rule="nonzero"/><path fill="#ffffff" d="M 138.332031 46.804688 L 104.769531 65.414062 L 137.960938 73.757812 L 172.027344 51.164062 Z M 138.332031 46.804688 " fill-opacity="1" fill-rule="nonzero"/><path fill="#ffffff" d="M 185.128906 27.03125 L 155.691406 37.832031 L 180.601562 54.378906 L 213.539062 41 Z M 185.128906 27.03125 " fill-opacity="1" fill-rule="nonzero"/><path fill="#ffffff" d="M 115.058594 27.785156 L 66.457031 36.089844 L 87.566406 52.757812 L 134.5 41.964844 Z M 115.058594 27.785156 " fill-opacity="1" fill-rule="nonzero"/><path fill="#ffffff" d="M 219.582031 35.609375 L 189.347656 54.007812 L 220.8125 61.003906 L 255.960938 41.015625 L 219.578125 35.609375 Z M 219.582031 35.609375 " fill-opacity="1" fill-rule="nonzero"/><path fill="#ffffff" d="M 181.1875 63.773438 L 158.4375 72.886719 C 145.921875 77.902344 135.703125 82.144531 135.726562 82.304688 C 135.75 82.46875 142.128906 85.078125 149.898438 88.117188 L 164.015625 93.644531 L 187.660156 84.726562 C 200.65625 79.8125 211.367188 75.683594 211.460938 75.554688 C 211.554688 75.429688 204.785156 72.726562 196.414062 69.546875 Z M 181.1875 63.773438 " fill-opacity="1" fill-rule="nonzero"/><path fill="#ffffff" d="M 256.160156 45.269531 L 221.515625 65.402344 L 225.03125 110.210938 L 256.773438 89.921875 L 256.15625 45.269531 Z M 256.160156 45.269531 " fill-opacity="1" fill-rule="nonzero"/></svg>