<svg xmlns="http://www.w3.org/2000/svg" xmlns:xlink="http://www.w3.org/1999/xlink" width="384" zoomAndPan="magnify" viewBox="0 0 288 287.999989" height="384" preserveAspectRatio="xMidYMid meet" version="1.0"><defs><clipPath id="601ee865c0"><path d="M 51 118 L 165 118 L 165 270.878906 L 51 270.878906 Z M 51 118 " clip-rule="nonzero"/></clipPath><clipPath id="05ea564b39"><path d="M 46.511719 17.378906 L 241.511719 17.378906 L 241.511719 118 L 46.511719 118 Z M 46.511719 17.378906 " clip-rule="nonzero"/></clipPath></defs><g clip-path="url(#601ee865c0)"><path fill="#ffffff" d="M 164.75 127 L 164.75 135.121094 L 155.347656 135.121094 L 155.347656 143.472656 L 142.882812 143.472656 L 142.828125 144.390625 L 142.769531 145.304688 L 141.210938 147.671875 C 140.363281 148.960938 138.308594 152.035156 136.667969 154.492188 C 135.03125 156.953125 132.78125 160.316406 131.679688 161.976562 C 130.582031 163.632812 128.332031 167 126.691406 169.457031 C 125.054688 171.917969 122.804688 175.292969 121.695312 176.976562 L 119.664062 180.027344 L 119.746094 180.6875 C 119.835938 181.535156 119.550781 183.019531 119.148438 183.726562 C 118.882812 184.191406 117.027344 187 113.09375 192.890625 C 112.394531 193.945312 110.789062 196.347656 109.539062 198.226562 C 108.289062 200.105469 106.84375 202.277344 106.328125 203.042969 C 105.8125 203.808594 104.367188 205.976562 103.117188 207.855469 C 101.867188 209.734375 100.25 212.160156 99.527344 213.25 C 98.792969 214.328125 97.40625 216.417969 96.433594 217.890625 C 92.28125 224.121094 88.875 229.222656 86.605469 232.625 C 85.835938 233.773438 84.300781 236.070312 83.199219 237.726562 C 80.5625 241.695312 78.199219 245.234375 76.433594 247.878906 C 75.65625 249.0625 74.082031 251.40625 72.960938 253.097656 C 71.835938 254.792969 70.4375 256.878906 69.863281 257.738281 C 69.289062 258.597656 67.890625 260.683594 66.765625 262.378906 C 65.644531 264.074219 64.300781 266.078125 63.796875 266.84375 C 62.226562 269.210938 61.355469 269.917969 59.566406 270.324219 C 58.316406 270.605469 56.972656 270.40625 55.941406 269.792969 C 54.808594 269.109375 53.238281 267.96875 52.71875 267.460938 C 51.058594 265.8125 50.644531 263.285156 51.6875 261.195312 C 51.824219 260.941406 54.074219 257.519531 58.5 250.894531 C 59.703125 249.074219 61.605469 246.230469 62.707031 244.574219 C 63.820312 242.914062 65.414062 240.511719 66.273438 239.234375 C 67.71875 237.054688 68.957031 235.199219 73.566406 228.273438 C 74.609375 226.707031 75.941406 224.722656 76.515625 223.867188 C 77.097656 223.007812 78.488281 220.917969 79.609375 219.226562 C 80.734375 217.53125 82.304688 215.1875 83.085938 214.003906 C 83.875 212.820312 85.320312 210.652344 86.296875 209.191406 C 88.679688 205.617188 92.773438 199.480469 96.316406 194.167969 C 97.097656 192.984375 98.714844 190.558594 99.90625 188.773438 C 101.097656 186.988281 102.542969 184.816406 103.117188 183.960938 C 103.691406 183.101562 105.03125 181.082031 106.085938 179.492188 C 107.152344 177.890625 108.207031 176.394531 108.4375 176.140625 C 109.457031 175.039062 110.914062 174.414062 112.464844 174.414062 L 113.4375 174.414062 L 113.722656 173.996094 C 113.886719 173.761719 115.203125 171.800781 116.648438 169.632812 C 119.378906 165.527344 121.257812 162.695312 123.847656 158.808594 C 124.699219 157.558594 126.246094 155.214844 127.3125 153.625 C 128.367188 152.023438 129.925781 149.691406 130.777344 148.425781 C 131.625 147.164062 132.703125 145.550781 133.171875 144.832031 L 134.03125 143.53125 L 129.605469 143.496094 L 125.191406 143.472656 L 125.191406 135.121094 L 115.214844 135.121094 L 115.214844 118.878906 L 164.753906 118.878906 L 164.753906 127 Z M 164.75 127 " fill-opacity="1" fill-rule="nonzero"/></g><g clip-path="url(#05ea564b39)"><path fill="#ffffff" d="M 56.652344 17.378906 C 51.011719 17.378906 46.554688 21.105469 46.554688 26.855469 L 46.554688 109.109375 C 46.554688 114.859375 51.011719 117.074219 56.652344 117.074219 L 231.339844 117.074219 C 236.984375 117.074219 241.429688 114.859375 241.429688 109.109375 L 241.429688 26.855469 C 241.429688 21.105469 236.984375 17.378906 231.339844 17.378906 Z M 60.988281 80.246094 L 60.988281 55.148438 C 60.988281 54.226562 62.453125 53.476562 63.394531 53.476562 C 64.335938 53.476562 65.800781 54.226562 65.800781 55.148438 L 65.800781 80.246094 C 65.800781 81.160156 64.335938 81.910156 63.394531 81.910156 C 62.453125 81.910156 60.988281 81.160156 60.988281 80.246094 Z M 234.035156 67.726562 C 234.035156 73 229.84375 77.273438 224.671875 77.273438 C 219.5 77.273438 215.3125 73 215.3125 67.726562 C 215.3125 62.453125 219.5 58.179688 224.671875 58.179688 C 229.84375 58.179688 234.035156 62.457031 234.035156 67.726562 Z M 213.425781 21.914062 L 213.425781 112.542969 L 74.570312 112.542969 L 74.570312 21.914062 Z M 213.425781 21.914062 " fill-opacity="1" fill-rule="nonzero"/></g></svg>