<svg xmlns="http://www.w3.org/2000/svg" xmlns:xlink="http://www.w3.org/1999/xlink" width="384" zoomAndPan="magnify" viewBox="0 0 288 287.999989" height="384" preserveAspectRatio="xMidYMid meet" version="1.0"><defs><clipPath id="a7fcd675da"><path d="M 124 33.175781 L 164 33.175781 L 164 73 L 124 73 Z M 124 33.175781 " clip-rule="nonzero"/></clipPath></defs><path fill="#ffffff" d="M 79.875 206.316406 C 79.875 203.945312 80.339844 201.578125 81.332031 199.34375 C 83.199219 195.164062 86.582031 191.957031 90.859375 190.3125 L 91.316406 190.140625 C 95.574219 188.507812 100.230469 188.636719 104.417969 190.5 C 106.652344 191.496094 108.574219 192.949219 110.160156 194.714844 L 123.230469 171.851562 L 54.878906 198.035156 Z M 79.875 206.316406 " fill-opacity="1" fill-rule="nonzero"/><path fill="#ffffff" d="M 106.960938 202.515625 C 105.984375 199.96875 104.078125 197.957031 101.585938 196.84375 C 100.261719 196.253906 98.851562 195.953125 97.4375 195.953125 C 96.207031 195.953125 94.96875 196.183594 93.78125 196.636719 L 93.324219 196.808594 C 90.800781 197.777344 88.789062 199.683594 87.675781 202.175781 C 86.570312 204.664062 86.492188 207.4375 87.46875 209.980469 L 102.910156 250.296875 C 104.09375 253.375 107.558594 254.925781 110.636719 253.746094 L 118.957031 250.558594 C 120.449219 249.984375 121.632812 248.867188 122.28125 247.410156 C 122.933594 245.949219 122.972656 244.324219 122.40625 242.832031 Z M 106.960938 202.515625 " fill-opacity="1" fill-rule="nonzero"/><path fill="#ffffff" d="M 95.085938 79.152344 C 87.078125 75.578125 78.585938 73.789062 70.074219 73.789062 C 62.644531 73.789062 55.203125 75.152344 48.050781 77.890625 C 32.710938 83.769531 20.578125 95.257812 13.890625 110.25 C 7.203125 125.242188 6.757812 141.945312 12.632812 157.285156 C 18.710938 173.15625 31.476562 187.914062 44.699219 194.496094 L 128.441406 162.417969 C 133.882812 148.679688 133.519531 129.167969 127.441406 113.3125 C 121.566406 97.96875 110.078125 85.839844 95.085938 79.152344 Z M 95.085938 79.152344 " fill-opacity="1" fill-rule="nonzero"/><path fill="#ffffff" d="M 274.109375 110.25 C 267.421875 95.257812 255.289062 83.769531 239.945312 77.890625 C 224.617188 72.015625 207.90625 72.460938 192.914062 79.152344 C 177.921875 85.839844 166.429688 97.96875 160.554688 113.308594 C 154.476562 129.167969 154.117188 148.679688 159.554688 162.417969 L 243.296875 194.496094 C 256.523438 187.914062 269.289062 173.15625 275.367188 157.285156 C 281.242188 141.945312 280.792969 125.242188 274.109375 110.25 Z M 274.109375 110.25 " fill-opacity="1" fill-rule="nonzero"/><path fill="#ffffff" d="M 194.652344 196.800781 L 194.238281 196.644531 C 191.675781 195.660156 188.902344 195.738281 186.410156 196.84375 C 183.917969 197.957031 182.015625 199.96875 181.039062 202.511719 L 165.59375 242.832031 C 165.023438 244.324219 165.066406 245.949219 165.714844 247.410156 C 166.367188 248.867188 167.546875 249.984375 169.039062 250.558594 L 177.359375 253.746094 C 180.433594 254.917969 183.910156 253.375 185.089844 250.296875 L 200.53125 209.980469 C 201.507812 207.4375 201.429688 204.664062 200.320312 202.175781 C 199.210938 199.683594 197.195312 197.777344 194.652344 196.800781 Z M 194.652344 196.800781 " fill-opacity="1" fill-rule="nonzero"/><path fill="#ffffff" d="M 177.835938 194.714844 C 179.421875 192.949219 181.347656 191.496094 183.578125 190.5 C 187.765625 188.632812 192.425781 188.507812 196.703125 190.152344 L 197.113281 190.304688 C 201.414062 191.957031 204.796875 195.164062 206.667969 199.34375 C 207.660156 201.578125 208.121094 203.945312 208.121094 206.316406 L 233.121094 198.035156 L 164.765625 171.851562 Z M 177.835938 194.714844 " fill-opacity="1" fill-rule="nonzero"/><g clip-path="url(#a7fcd675da)"><path fill="#ffffff" d="M 163.679688 52.957031 C 163.679688 53.601562 163.648438 54.246094 163.585938 54.886719 C 163.519531 55.527344 163.425781 56.167969 163.300781 56.796875 C 163.175781 57.429688 163.019531 58.054688 162.832031 58.671875 C 162.644531 59.289062 162.429688 59.894531 162.179688 60.488281 C 161.933594 61.085938 161.660156 61.667969 161.355469 62.234375 C 161.050781 62.804688 160.71875 63.355469 160.363281 63.890625 C 160.003906 64.429688 159.621094 64.945312 159.210938 65.445312 C 158.804688 65.941406 158.371094 66.417969 157.914062 66.875 C 157.460938 67.332031 156.980469 67.761719 156.484375 68.171875 C 155.984375 68.582031 155.46875 68.964844 154.933594 69.320312 C 154.398438 69.679688 153.84375 70.011719 153.277344 70.316406 C 152.707031 70.617188 152.125 70.894531 151.53125 71.140625 C 150.933594 71.386719 150.328125 71.605469 149.710938 71.792969 C 149.09375 71.980469 148.472656 72.136719 147.839844 72.261719 C 147.207031 72.386719 146.570312 72.480469 145.929688 72.542969 C 145.285156 72.605469 144.644531 72.640625 144 72.640625 C 143.355469 72.640625 142.710938 72.605469 142.070312 72.542969 C 141.429688 72.480469 140.792969 72.386719 140.160156 72.261719 C 139.527344 72.136719 138.902344 71.980469 138.285156 71.792969 C 137.667969 71.605469 137.0625 71.386719 136.46875 71.140625 C 135.871094 70.894531 135.289062 70.617188 134.722656 70.316406 C 134.152344 70.011719 133.601562 69.679688 133.066406 69.320312 C 132.53125 68.964844 132.011719 68.582031 131.515625 68.171875 C 131.015625 67.761719 130.539062 67.332031 130.082031 66.875 C 129.628906 66.417969 129.195312 65.941406 128.785156 65.445312 C 128.378906 64.945312 127.992188 64.429688 127.636719 63.890625 C 127.277344 63.355469 126.945312 62.804688 126.644531 62.234375 C 126.339844 61.667969 126.0625 61.085938 125.816406 60.488281 C 125.570312 59.894531 125.355469 59.289062 125.167969 58.671875 C 124.980469 58.054688 124.824219 57.429688 124.695312 56.796875 C 124.570312 56.167969 124.476562 55.527344 124.414062 54.886719 C 124.351562 54.246094 124.320312 53.601562 124.320312 52.957031 C 124.320312 52.3125 124.351562 51.671875 124.414062 51.03125 C 124.476562 50.386719 124.570312 49.75 124.695312 49.121094 C 124.824219 48.488281 124.980469 47.863281 125.167969 47.246094 C 125.355469 46.628906 125.570312 46.023438 125.816406 45.425781 C 126.0625 44.832031 126.339844 44.25 126.644531 43.683594 C 126.945312 43.113281 127.277344 42.5625 127.636719 42.023438 C 127.992188 41.488281 128.378906 40.972656 128.785156 40.472656 C 129.195312 39.976562 129.628906 39.5 130.082031 39.042969 C 130.539062 38.585938 131.015625 38.15625 131.515625 37.746094 C 132.011719 37.335938 132.53125 36.953125 133.066406 36.59375 C 133.601562 36.238281 134.152344 35.90625 134.722656 35.601562 C 135.289062 35.296875 135.871094 35.023438 136.46875 34.777344 C 137.0625 34.53125 137.667969 34.3125 138.285156 34.125 C 138.902344 33.9375 139.527344 33.78125 140.160156 33.65625 C 140.792969 33.53125 141.429688 33.4375 142.070312 33.375 C 142.710938 33.308594 143.355469 33.277344 144 33.277344 C 144.644531 33.277344 145.285156 33.308594 145.929688 33.375 C 146.570312 33.4375 147.207031 33.53125 147.839844 33.65625 C 148.472656 33.78125 149.09375 33.9375 149.710938 34.125 C 150.328125 34.3125 150.933594 34.53125 151.53125 34.777344 C 152.125 35.023438 152.707031 35.296875 153.277344 35.601562 C 153.84375 35.90625 154.398438 36.238281 154.933594 36.59375 C 155.46875 36.953125 155.984375 37.335938 156.484375 37.746094 C 156.980469 38.15625 157.460938 38.585938 157.914062 39.042969 C 158.371094 39.5 158.804688 39.976562 159.210938 40.472656 C 159.621094 40.972656 160.003906 41.488281 160.363281 42.023438 C 160.71875 42.5625 161.050781 43.113281 161.355469 43.683594 C 161.660156 44.25 161.933594 44.832031 162.179688 45.425781 C 162.429688 46.023438 162.644531 46.628906 162.832031 47.246094 C 163.019531 47.863281 163.175781 48.488281 163.300781 49.121094 C 163.425781 49.75 163.519531 50.386719 163.585938 51.03125 C 163.648438 51.671875 163.679688 52.3125 163.679688 52.957031 Z M 163.679688 52.957031 " fill-opacity="1" fill-rule="nonzero"/></g></svg>